<svg xmlns="http://www.w3.org/2000/svg" id="Layer_1" x="0" y="0" version="1.1" viewBox="0 0 398.5 450" xml:space="preserve"><style>.st0{fill:#fff}.st3{fill:none;stroke:#000;stroke-width:6;stroke-miterlimit:10}</style><g id="XMLID_2_"><g id="XMLID_395_"><g id="XMLID_9_"><path id="XMLID_691_" d="M331.9 10.6c.3-.5.9-.6 1.5-.5.5.2.9.6 1.3 1 1 1.3 1.6 2.9 1.6 4.5l.1 1.4c.1.5.5.9.9.9.5.1.9-.3 1.1-.7.2-.4.2-.9.2-1.4.1-2.6.1-5.3-1-7.6-.6-1.2-1.5-2.2-2-3.5s-.6-2.7.3-3.7c.6-.7 1.8-1 2.6-.6 1 .4 1.6 1.4 2.6 1.8.8.3 1.8.2 2.6-.2l2.4-1.2c.6-.3 1.2-.5 1.8-.3.8.2 1.2 1 1.6 1.7 1.8 3.2 3.6 6.5 4.5 10.2.2.9.4 1.9.8 2.7"/><path id="XMLID_686_" d="M332.4 10.7c1.5-1.4 3 2.4 3.2 3.3.2 1-.1 2.8.7 3.6.5.5 1.5.7 2.1.3 1.5-1 .9-4.9.7-6.4-.4-2.8-2.2-4.6-3.1-7.1-.7-2.2.2-5.1 3.4-3.2.6.3.9.8 1.5 1 1.4.5 2.8.1 4.1-.5 1.1-.5 1.3-.9 2.7-.5 1.3.4 1.3.6 1.9 1.6l2 3.8c1.3 2.7 1.7 5.6 2.9 8.3.1.3 1.1.3 1 0-.7-1.5-.9-3.2-1.4-4.8-.6-1.8-1.4-3.4-2.3-5.1-.8-1.5-1.7-4.3-3.6-4.9-3-.9-4.5 3.1-7.8 1-1.1-.7-2.1-1.5-3.6-1.1-2.5.7-2.1 3.5-1.2 5.4.9 1.8 2 3.1 2.4 5.2.2.8.9 5.3.2 5.9h-1.4l-.1-1.5-.4-1.6c-.4-1-1-2.3-2-3-.9-.6-2-.7-2.9.1-.2.1.7.4 1 .2z" class="st0"/></g><g id="XMLID_13_"><g id="XMLID_171_"><path id="XMLID_679_" d="M354.9 14.2c1.5 0 3.1.4 4.4 1.3 1.7 1.3 2.7 3.3 3.6 5.2 1.9 3.7 4 7.4 7 10.3 4.4 4.2 10.6 6.4 14.4 11.2a7.7 7.7 0 011.8 4c.1 1.5-.6 3.1-1.9 3.6-.7.3-1.6.3-2.4.4-2.2.2-4.4.9-6.6.9-1.6 0-3.2-.4-4.8-.6-3.1-.5-6.2-.3-9.3-.1-2.5.2-5.1.5-7.6.5-3.9-.1-7.7-1-11.2-2.6-.6-.3-1.2-.6-1.6-1.1-.6-.6-.8-1.5-1.1-2.3-.8-1.8-2.3-3.2-3.3-4.8-1.7-2.7-2.1-6.1-3.4-9-.6-1.4-1.4-2.7-2-4.2-2-5.1-.5-10.8 1-16"/><path id="XMLID_183_" d="M355.1 14.4c5.9.3 7.3 6.5 9.8 10.6 1.9 3.1 4.1 5.7 7 7.9 2.9 2.1 6.1 3.8 8.8 6.1 2.5 2 7 6.5 3.9 9.8-1.2 1.3-4.8 1.3-6.6 1.6-2.7.4-4.9.2-7.5-.2-4.1-.6-8.1-.3-12.2.1-5.1.4-10.9.5-15.5-2.1-2.1-1.2-2.5-3-3.7-4.8-1.3-2-2.8-3.6-3.6-5.8-.7-1.9-1.1-3.9-1.9-5.7-.9-2.2-2.2-4.2-2.8-6.6a27 27 0 011.6-14.3c.1-.3-.9-.6-.9-.3a29.8 29.8 0 00-1.6 14.5c.6 2.5 2.1 4.6 2.9 6.9.9 2.4 1.3 4.9 2.5 7.2 1.1 2.1 2.8 3.7 3.8 5.8.6 1.3 1 2.2 2.3 3a26 26 0 0011.9 3.1c5.8.2 11.5-1.2 17.3-.4 2.3.3 4.5.8 6.8.5l2.9-.5c1.3-.2 3.1-.1 4.3-.6 3.6-1.7 1.6-6.2-.2-8.4-2.6-3.1-6.2-5.1-9.5-7.3a34.4 34.4 0 01-11.6-14c-1.9-3.7-4.1-6.3-8.5-6.5-.7-.1 0 .4.3.4z" class="st0"/></g><g id="XMLID_211_"><path id="XMLID_685_" d="M352.5 16.9a7 7 0 013.9 1.5c1.6 1.2 2.5 3.1 3.4 4.9 1.8 3.5 3.9 6.9 6.8 9.6 3.2 3 7.3 4.8 10.6 7.6a25 25 0 012.3 2.3c.8 1 1.5 2.2 1.7 3.4.1 1.3-.4 2.6-1.5 3.1-.6.3-1.2.3-1.9.4-1.7.2-3.4.8-5.1.8-1.2 0-2.5-.3-3.7-.5-2.4-.4-4.8-.3-7.2 0l-2.7.3-3.1.1c-2.5-.1-5.1-.8-7.6-2l-1.6-.8c-.5-.3-1.1-.6-1.4-1.1-.5-.7-.8-1.5-1.2-2.2l-.3-.5c-.9-1.4-2.3-2.5-3.3-3.9l-.4-.5c-1.6-2.3-2.4-5-3.9-7.4l-1.7-2.6-.6-1c-1.7-3-2-6.4-1.8-9.8l.3-2.9.1-.9.2-.8"/><path id="XMLID_680_" d="M352.6 17.2c5.6.7 7.1 7.3 9.8 11.3 2.3 3.4 5.1 5.8 8.5 8.1 3.2 2.1 10.2 5.6 9.9 10.3-.2 2.7-2.9 2.7-5 3.1-3.1.5-5.7 0-8.7-.2-5.1-.3-10.2 1.3-15.2-.2-1.6-.5-3.3-1.1-4.7-2-1.3-.8-1.7-1.8-2.5-3.1-1-1.6-2.5-2.9-3.6-4.4-1.5-1.9-2.3-4.2-3.4-6.4-.9-1.8-2.2-3.4-3.2-5.1a21.3 21.3 0 01-1.2-14.3c.1-.3-.9-.5-1-.3-.8 4.1-1.1 9 .5 12.9.7 1.7 1.7 3.1 2.7 4.6 1.3 2.1 2.2 4.4 3.4 6.6 1 1.7 2.3 3 3.5 4.5 1.2 1.4 1.7 3.4 3.1 4.5 2.5 2.1 6.6 3.3 9.8 3.6 4.6.5 9.2-.9 13.9-.3 1.8.3 3.4.7 5.2.4 1.1-.1 2.2-.5 3.4-.6.8-.1 1.6-.1 2.4-.4 3.2-1.6 1-5.6-.6-7.4-2.8-3.1-6.6-4.9-9.9-7.3a34.4 34.4 0 01-9.7-12.6c-1.7-3.1-3.8-5.2-7.4-5.7-.8-.2-.4.3 0 .4z" class="st0"/></g><g id="XMLID_210_"><path id="XMLID_678_" d="M350.1 19.7c1.2.2 2.5.8 3.5 1.7 1.4 1.2 2.3 3 3.2 4.7 1.8 3.3 3.8 6.4 6.5 9 2.8 2.6 6.4 4.3 9.4 6.6.8.6 1.5 1.3 2.1 2 .7.9 1.4 1.8 1.6 2.9.2 1.1-.2 2.2-1.1 2.7a3 3 0 01-1.3.3c-1.2.2-2.3.7-3.5.7-.9 0-1.7-.2-2.6-.4-1.7-.3-3.4-.2-5 0l-1.9.2a8 8 0 01-2.2 0c-1.9-.2-3.8-1-5.9-2.2l-1.3-.8c-.4-.3-.9-.6-1.2-1L349 44l-.4-.5c-1-1.3-2.4-2.3-3.5-3.5l-.4-.4c-1.9-2.1-3-4.3-4.7-6.4l-2-2.2-.7-.9c-2-2.6-2.9-5.5-3.2-8.7l-.2-2.7-.1-.8v-.5"/><path id="XMLID_673_" d="M350.1 19.9c5 1.2 6.4 6.7 9 10.5 2 2.9 4.3 5.2 7.2 7.1 3.1 2.1 8.1 4.3 9.5 8.1 1.9 5.6-8.1 3.7-11 3.8-1.8.1-3.7.5-5.5.5-2.7-.1-6.7-1.8-8.5-3.9-1.3-1.4-2-3-3.5-4.4-1.3-1.2-2.6-2.4-3.6-3.9-1.1-1.5-2.1-3.1-3.3-4.6-1.1-1.3-2.3-2.4-3.2-3.8-2.3-3.3-3.1-8-3-12 0-.3-1-.5-1-.2-.1 3.3.5 7.1 1.9 10.1 1.4 3.1 4.1 5.2 6 8 1.1 1.6 2.2 3.3 3.6 4.7 1.5 1.6 3.1 2.8 4.3 4.7a14 14 0 007.1 5.1c3 1.1 5.7.4 8.7.3 3.8-.2 6.9 1.1 10.6-.5 3-1.3.9-4.8-.6-6.4-2.4-2.5-5.6-4.1-8.5-6.1a32.2 32.2 0 01-9.2-11.2c-1.7-3.1-3.5-5.4-7-6.2-.5-.3-.6.1 0 .3z" class="st0"/></g><g id="XMLID_202_"><path id="XMLID_671_" d="M347.7 22.4c1.1.4 2.2 1 3.1 1.8 1.3 1.2 2.1 2.8 3 4.4 1.7 3 3.7 6 6.3 8.3 2.5 2.2 5.5 3.7 8.1 5.7l1.9 1.6c.7.7 1.3 1.5 1.5 2.4.2.9-.1 1.7-.6 2.2-.2.2-.5.2-.7.3-.7.2-1.3.6-2 .7l-1.5-.3c-.9-.2-1.9-.1-2.9.1l-1.1.2h-1.3c-1.2-.3-2.6-1.1-4.2-2.4a7 7 0 00-1-.8l-1-1c-.5-.7-.9-1.4-1.5-2l-.4-.4-3.8-3.1-.5-.4c-2.1-1.8-3.6-3.6-5.6-5.3l-2.3-1.9-.8-.7a17.4 17.4 0 01-4.7-7.6l-.7-2.5-.3-.7c-.1-.2-.2-.2-.1-.3"/><path id="XMLID_666_" d="M347.4 22.6c3.9 1.5 5.2 5.1 7.3 8.4 1.9 2.9 4.1 5.6 6.9 7.6 2.9 2.1 7 3.7 8.9 6.8.9 1.5.7 3.2-1.3 3.7-1 .3-2 0-3.1 0l-3 .3c-4.3.3-6.7-3.7-9.2-6.4-2.4-2.6-5.4-4.5-7.9-7-2.3-2.3-5.1-4-7.1-6.6-1.1-1.5-2-3.1-2.6-4.8-.3-1-1.4-3.2-1.3-4.2 0-.2-1-.2-1 .1-.1.9.8 2.6 1.1 3.5.5 1.4 1 2.8 1.8 4.1 1.6 2.7 4 4.4 6.3 6.4 2.6 2.3 4.9 4.8 7.6 6.9 2.5 2 4 4.6 6.6 6.5 1.7 1.3 3.3 2.2 5.5 1.9 2.8-.3 5.2.6 7.9-.8 5.3-2.8-5.8-9-7.7-10.3a29.4 29.4 0 01-8.4-9.5c-1.8-3-3.2-5.7-6.7-7-.2-.1-1.1.2-.6.4z" class="st0"/></g><g id="XMLID_201_"><path id="XMLID_664_" d="M345.3 25.1a10 10 0 012.7 2c1.1 1.2 1.9 2.7 2.8 4.1a32 32 0 006 7.6c2.1 1.8 4.7 3.1 6.9 4.7a10.1 10.1 0 013 3.1c.3.7.2 1.4-.2 1.7 0 .2-.1.2-.2.3-.2.2-.3.6-.5.6-.1.1-.3-.1-.4-.1-.2-.1-.5 0-.7.1l-.3.1c-.1 0-.2.1-.3-.1-.6-.3-1.3-1.3-2.5-2.6l-.8-.9-.8-1c-.5-.7-1-1.4-1.6-1.9l-.5-.4c-1.3-1-2.8-1.9-4.1-2.7l-.5-.3-6.4-4.3-2.5-1.5-.9-.6a17.3 17.3 0 01-6.1-6.5 48.5 48.5 0 01-1.7-2.9h-.3"/><path id="XMLID_658_" d="M344.9 25.2c3.7 2.1 5.2 6.1 7.6 9.4 1.8 2.5 4 4.6 6.6 6.3l4.7 3.1c1.2 1 3.7 3.3 1.7 4.8-.2.2.3 0 0 .1-.1.1-.6-.1-.7-.1-.9 0-.4.6-1.4-.5-2-2.1-3.5-4.7-5.8-6.4-2.8-2.1-5.9-4-8.9-5.9-2.9-1.9-6-3.3-8.4-5.8a18.4 18.4 0 01-3-4.3c-.4-.8-.8-2-1.7-2.4-.1-.1-.6-.2-.7 0v.1c-.2.2.8.5.9.3v-.1h-.7c.7.3 1.6 2.7 2 3.5l1.3 1.9a25 25 0 003.3 3.2c3 2.3 6.5 4.1 9.7 6.2 1.8 1.2 3.7 2.3 5.4 3.6 1.5 1.2 2.6 2.8 3.9 4.2 1 1.2 2.1 3.3 3.9 3.3l1.1-.1c.6-.2.7-.1 1.2-.8 1.6-2.5-2-4.6-3.8-5.8a33 33 0 01-10.2-9.1c-2.2-3.2-3.6-6.6-7.1-8.6-.3-.4-1.3-.3-.9-.1z" class="st0"/></g><g id="XMLID_200_"><path id="XMLID_656_" d="M342.9 27.9c.8.6 1.5 1.3 2.3 2.2 1 1.2 1.8 2.5 2.6 3.9 1.6 2.6 3.5 5 5.8 6.9 1.7 1.5 3.8 2.5 5.6 3.7a12.1 12.1 0 012.7 2.3c.3.5.3 1 .2 1.2l.4.3 1 .6h.7l1.4.2.5.1c.2 0 .4 0 .6-.2.1-.3-.1-1.4-.7-2.8l-.5-.9-.6-.9c-.4-.7-1-1.3-1.7-1.8l-.5-.4c-1.4-.9-2.9-1.7-4.4-2.4l-.6-.3a88.6 88.6 0 00-7.2-3.2l-2.8-1.1-1.1-.4c-3-1.3-5.5-3-7.6-5.4l-1.7-2.1c-.2-.2-.4-.5-.6-.5-.2-.1-.5 0-.4.2"/><path id="XMLID_651_" d="M342.5 27.9c3.3 2.7 4.9 6.7 7.7 10 2.3 2.7 5 4.5 7.9 6.3.9.6 2.2 1.2 2.9 2.2.4.5.3 1.1.6 1.6.4.5 1.2.8 1.8 1 1.1.3 3.5.8 3.8-.6.4-2.1-2.7-5.4-4.2-6.5-3.2-2.2-7-3.7-10.5-5.2s-7.1-2.6-10.2-4.9c-1.8-1.3-2.9-3.2-4.5-4.7-.6-.6-.8-.7-1.5-.7-.1 0-.3 0-.4.2l-.1.2c-.1.2.9.4 1 .1-.2.5 2.4 3.1 2.8 3.5.9.9 2 1.7 3.1 2.4 2.1 1.4 4.5 2.3 6.8 3.2 3.2 1.2 6.4 2.7 9.5 4.3 3 1.5 5.6 3.3 6.9 6.5.6 1.6.5 1.8-1 1.7-1.8-.1-1.7-.6-2.5-1.8-1.6-2.3-4.8-3.4-7-5a26.6 26.6 0 01-6.6-7.2c-1.6-2.5-3-4.9-5.3-6.8-.3 0-1.3 0-1 .2z" class="st0"/></g><g id="XMLID_199_"><path id="XMLID_649_" d="M340.5 30.6l1.8 2.3 2.4 3.6a30 30 0 005.5 6.3c1.3 1.1 2.9 2 4.4 2.8l1.1.6 1.2.8.7.7.9.2a22.1 22.1 0 004.3.6 38.8 38.8 0 014.9.3c.5 0 1 0 1.5-.2.7-.4 1.2-1.6 1-3l-.2-.9-.4-.9a4.2 4.2 0 00-1.8-1.7l-.6-.3c-1.5-.8-3.1-1.4-4.7-2l-.6-.2c-2.7-.9-5.3-1.6-8.1-2.2l-3.1-.7-1.2-.3c-3.3-.9-6.4-2.1-9-4.3l-2.2-1.9c-.3-.2-.5-.4-.8-.4-.3 0-.6.2-.5.5"/><path id="XMLID_644_" d="M340.1 30.6c2.8 3.4 4.8 7.3 7.8 10.5a27 27 0 004.1 3.3l2.3 1.3 2.8 1.9c2.3 1.3 5.9 1.1 8.5 1.2 2.6.2 5.7.5 5.1-3.2-.5-2.9-3.2-4.2-5.7-5.2a70.6 70.6 0 00-11.9-3.5 28.3 28.3 0 01-13.2-5.9c-.6-.5-2.7-2.6-3.4-1-.1.2.9.5 1 .2.2-.5 2.6 1.7 3 2.1 1 .8 2.1 1.5 3.3 2.1a34 34 0 007 2.4c3.4.8 6.8 1.5 10.1 2.5 2.9.9 7.5 2.1 8.6 5.3.3.9.4 2.1 0 2.9-.6 1-1.6 1-2.6 1a29 29 0 01-6.6-.5c-2.3-.4-4.1-1.9-6.1-3-3.1-1.7-5.6-4-7.8-6.8-1.9-2.5-3.4-5.2-5.4-7.6-.2-.2-1.2-.3-.9 0z" class="st0"/></g><g id="XMLID_74_"><path id="XMLID_169_" d="M338.1 33.3c2.3 4.2 5 8.4 8.8 11.4 1 .7 2 1.4 3.2 1.8 1 .4 2 .5 3.1.7 5.4.8 10.9 1.2 16.3 1.2.8 0 1.7 0 2.4-.3a4 4 0 002.7-3.2c.1-.6 0-1.2-.2-1.8-.5-1-1.5-1.5-2.5-1.9-1.8-.8-3.7-1.4-5.6-1.8-4-.9-8.2-1-12.3-1.4-4.1-.4-8.3-1.2-11.8-3.3-.9-.5-1.7-1.2-2.7-1.7-.3-.2-.7-.4-1-.3-.4 0-.7.3-.7.7"/><path id="XMLID_80_" d="M337.6 33.4c2.1 3.8 4.4 7.5 7.6 10.4 2.7 2.4 5.3 3.3 8.8 3.8 4.5.6 9 1 13.6 1 2.8 0 6.3.2 7.4-3 1.1-3.4-2.6-4.6-5.1-5.4a48.6 48.6 0 00-11.9-2c-5.6-.5-11.1-1-15.9-4-1-.6-3.8-2.9-4.6-.8-.1.3.9.3 1 .1.4-1 3.3 1.3 3.8 1.6a36.6 36.6 0 0011.7 3.2c3.7.4 7.5.5 11.2 1.2 2.6.5 8.8 1.5 9 4.9.4 5.1-8.1 3.9-11.3 3.7-3.6-.2-7.4-.4-11-1.2-6.3-1.4-10.3-8.2-13.2-13.5-.2-.4-1.2-.2-1.1 0z" class="st0"/></g></g><g id="XMLID_381_"><g id="XMLID_163_"><path id="XMLID_636_" d="M264.8 143.6a24 24 0 00-5-9.3c-8.1-11-16.7-22.4-28.9-28.7"/><path id="XMLID_170_" d="M265.3 143.7c-1.1-4.4-4-8-6.7-11.6-2.5-3.4-5.1-6.7-7.8-10a67 67 0 00-19.5-16.5c-.2-.1-1.2-.1-.7.2 7.6 4 13.9 9.9 19.4 16.4 2.8 3.3 5.4 6.7 8 10.2 2.6 3.5 5.4 7 6.5 11.3-.1.2.9.3.8 0z" class="st0"/></g><g id="XMLID_209_"><path id="XMLID_642_" d="M264.8 143.6c0-4-1.1-7.5-2.1-10.8l-1.2-4c-.4-1.4-.8-2.8-1.4-4.3l-1.7-4.1-1.4-3.5a79.3 79.3 0 00-10.6-19.4"/><path id="XMLID_637_" d="M265.3 143.6c-.1-4.1-1.2-7.8-2.3-11.7-1.2-3.9-2.4-7.7-4-11.5-3.3-8.1-6.4-16.1-12-22.9-.2-.2-1.1-.1-1 0a84.3 84.3 0 0111.6 22c1.5 3.9 2.9 7.7 4.1 11.6 1.2 4.1 2.4 8.1 2.5 12.4.1.4 1.1.4 1.1.1z" class="st0"/></g><g id="XMLID_208_"><path id="XMLID_635_" d="M264.7 143.6c.7-4.5.7-8.5.9-12.3l.2-4.5c.1-1.6.2-3.1 0-4.9-.1-1.6-.5-3.3-.7-4.9l-.3-4.2c-.4-6.7-.9-13.1-1.9-18.8l-.8-4.6"/><path id="XMLID_618_" d="M265.2 143.7c1.3-8.7 1.5-17.9.4-26.6-.6-4.8-.6-9.6-1-14.4-.4-4.4-1.3-8.8-1.9-13.2 0-.3-1-.5-1-.2.6 4.4 1.5 8.8 1.9 13.2l.9 13.5c.2 2.5.8 4.9.8 7.4l-.2 5.9c-.2 4.7-.2 9.4-.9 14.1 0 .4.9.6 1 .3z" class="st0"/></g><g id="XMLID_207_"><path id="XMLID_616_" d="M264.6 143.6c1.4-5.1 2.5-9.5 3.8-13.8l1.6-5c.6-1.7 1.2-3.5 1.4-5.5.2-1.8.1-3.8.3-5.7.1-1.7.4-3.2.8-4.8 1.5-7.7 3-15.1 4.1-21.9.3-2 .6-4 1.2-5.5"/><path id="XMLID_611_" d="M265.1 143.7c1.5-5.1 2.7-10.4 4.3-15.5.7-2.4 1.7-4.7 2.2-7.2.6-2.6.4-5.2.6-7.8.5-5.4 2-10.8 3-16.1 1-5.2 1.3-10.7 3-15.7.1-.3-.9-.5-1-.3-1.6 4.8-2 10.3-2.9 15.3-1 5.5-2.6 11-3.1 16.6-.2 2.5-.1 4.9-.5 7.4-.5 2.4-1.4 4.8-2.2 7.1-1.7 5.2-3 10.6-4.5 15.9.1.3 1.1.6 1.1.3z" class="st0"/></g><g id="XMLID_206_"><path id="XMLID_609_" d="M264.6 143.6a170.8 170.8 0 019.7-20.8c1.1-1.9 2.2-3.8 2.9-6.1.6-2.1.8-4.4 1.3-6.5.4-1.9 1.1-3.7 1.8-5.4 3.4-8.7 6.9-17.1 10.1-25 .9-2.3 1.9-4.7 3.2-6.5"/><path id="XMLID_604_" d="M265.1 143.7c2.3-5.9 4.8-11.7 7.8-17.3 1.4-2.6 3.1-5.2 4.2-8 1.2-2.9 1.2-6 2-9 1.6-6.1 4.6-12 6.9-17.8l3.8-9.3c1.2-3 2.3-6.2 4.2-8.9.2-.3-.8-.5-.9-.3-3.4 4.9-5.1 11.2-7.3 16.6-2.5 6.2-5.4 12.4-7.4 18.7-.9 2.9-1 6.1-2 9-1 3-2.8 5.7-4.3 8.4-3.1 5.7-5.6 11.6-8 17.7-.1.2.9.5 1 .2z" class="st0"/></g><g id="XMLID_205_"><path id="XMLID_602_" d="M264.5 143.6a112.4 112.4 0 0114.1-22.7c1.6-2.1 3.2-4.2 4.3-6.7 1-2.3 1.4-4.9 2.2-7.3.8-2.1 1.8-4.1 2.9-6 5.3-9.7 10.8-19 16.1-28.2 1.5-2.7 3.1-5.4 5.2-7.4"/><path id="XMLID_597_" d="M265 143.7c3.3-7 7.3-13.5 11.8-19.7 2-2.8 4.3-5.5 5.9-8.5 1.6-3.2 2-6.8 3.4-10.1 3.1-7.3 7.7-14.3 11.7-21.2l5.7-9.8c1.8-3.1 3.6-6.4 6.1-9 .2-.2-.7-.5-.9-.3-2.5 2.6-4.3 5.8-6.1 9l-5.9 10.2c-3.8 6.6-8 13.2-11.2 20.1-1.5 3.2-1.9 6.8-3.4 10.1-1.6 3.7-4.5 6.8-6.8 10-4.3 6-8.1 12.4-11.3 19.1 0 .1.9.3 1 .1z" class="st0"/></g><g id="XMLID_186_"><path id="XMLID_595_" d="M264.5 143.6c3.6-6.6 7.9-12.6 12.6-18.2l5.8-6.6c2.1-2.3 4.2-4.6 5.7-7.3 1.3-2.6 2-5.5 3.2-8.1 1.1-2.4 2.5-4.5 3.9-6.7 7.2-10.7 14.7-21 22-31.3 2.2-3 4.3-6 7.1-8.3"/><path id="XMLID_590_" d="M265 143.7c4.4-7.9 9.8-15.1 15.8-21.9 2.7-3.1 5.8-6 7.9-9.5 2-3.5 2.8-7.6 4.8-11.2 4.6-8.1 10.5-15.6 15.9-23.2l7.7-10.8c2.5-3.5 4.9-7 8.2-9.8.2-.2-.7-.5-.9-.3-3.3 2.8-5.7 6.4-8.2 9.8l-8.3 11.6c-5.1 7.1-10.5 14.2-15 21.8-2.4 4-3.2 8.7-5.6 12.6-2.2 3.5-5.3 6.4-8 9.5-5.7 6.6-11 13.6-15.2 21.2-.2.1.7.5.9.2z" class="st0"/></g><g id="XMLID_143_"><path id="XMLID_582_" d="M264.4 143.5a135 135 0 0122.7-26.8c2.6-2.5 5.2-4.9 7.1-7.9 1.7-2.8 2.7-6 4.2-8.9 1.4-2.6 3.2-5 5-7.3 9.1-11.6 18.5-23 28-34.4 2.8-3.3 5.6-6.7 9.1-9.2"/><path id="XMLID_154_" d="M264.9 143.6c4-6.5 8.8-12.5 14-18 2.6-2.8 5.3-5.5 8.1-8.1 2.6-2.5 5.3-4.9 7.3-7.9 2.1-3.1 3.1-6.7 4.8-10 1.9-3.5 4.5-6.5 6.9-9.6l16.1-19.9 9.1-11c3-3.6 5.9-7.2 9.7-9.9.3-.2-.6-.4-.9-.3-6.2 4.6-10.9 11.3-15.8 17.2L308 85.9c-2.6 3.2-5.2 6.4-7.6 9.7-2.4 3.3-3.8 7-5.5 10.7-3.2 6.7-9.5 11.3-14.6 16.5a120.7 120.7 0 00-16.4 20.6c-.1.3.9.5 1 .2z" class="st0"/></g><g id="XMLID_161_"><path id="XMLID_588_" d="M338.7 45.5c-3.1 2.5-5.1 5.8-7.4 8.9-7.6 10.2-16.5 19.5-23.8 29.9a44.7 44.7 0 00-4 7.1c-1.2 2.6-2 5.5-3.5 8a33.3 33.3 0 01-5.9 7.1 115.4 115.4 0 00-18.9 23.5"/><path id="XMLID_583_" d="M338.2 45.4c-3 2.5-5.1 5.8-7.5 8.9-2.7 3.6-5.6 7.2-8.5 10.7-5.8 7-12.4 14-17 21.9-2.2 3.9-3.4 8.1-5.5 12-2 3.8-5.3 6.6-8.2 9.7a111.8 111.8 0 00-16.8 21.3c-.1.3.8.4 1 .1 4.5-7.7 10.3-14.6 16.5-21 2.9-3 6.3-5.9 8.4-9.6 2.1-3.7 3.2-7.9 5.3-11.6 4.3-7.8 10.6-14.6 16.3-21.3l8.6-10.6c2.7-3.5 5-7.4 8.5-10.3.1-.2-.9-.3-1.1-.2z" class="st0"/></g><g id="XMLID_160_"><path id="XMLID_581_" d="M336.8 42.1c-2.7 2.5-3.8 5.7-5.7 8.5-5.9 8.9-14 16.3-19.6 25.5-1.3 2.1-2.1 4.6-3 7-.9 2.3-1.6 4.8-2.7 7-1.2 2.4-3 4.3-4.7 6.2a97.9 97.9 0 00-15.2 20.3"/><path id="XMLID_576_" d="M336.4 42.1c-2.5 2.5-3.9 5.7-5.8 8.6-2 3.2-4.4 6.1-6.8 9C319 65.4 313.2 71.1 310 78c-1.6 3.4-2.5 7.2-4 10.6-1.5 3.5-4 6.1-6.5 8.9a96 96 0 00-14 19c-.1.2.8.3 1 0a96.7 96.7 0 0113.4-18.3c2.5-2.8 5.2-5.4 6.8-8.8 1.6-3.4 2.5-7.1 4-10.6 2.9-6.8 8.6-12.5 13.3-18.1 2.4-2.9 4.8-5.8 6.9-8.9 2.2-3.2 3.6-6.8 6.4-9.6.2-.3-.7-.3-.9-.1z" class="st0"/></g><g id="XMLID_159_"><path id="XMLID_574_" d="M335 38.7c-2.2 2.5-2.6 5.5-4 8.2-4.1 7.6-11.5 13.3-15.4 21-1.1 2.1-1.3 4.5-2 6.8-.6 2-1.2 4.1-2 6-.9 2-2.2 3.7-3.5 5.3a86 86 0 00-11.5 17"/><path id="XMLID_569_" d="M334.5 38.5c-1.8 2.2-2.4 4.7-3.5 7.2a39.4 39.4 0 01-5.4 8.1c-3.7 4.5-8 8.7-10.5 14-1.4 2.9-1.8 6.4-2.7 9.5a27.5 27.5 0 01-5.2 9.3 81.1 81.1 0 00-11 16.4c-.1.2.8.5 1 .2a95.6 95.6 0 0111.7-17.3c1.9-2.4 3.3-4.7 4.2-7.5 1-3.1 1.4-6.5 2.6-9.5 2.2-5.6 7-10.1 10.8-14.7 1.7-2 3.3-4.2 4.6-6.5 1.7-2.9 2.2-6.2 4.4-8.8.1-.3-.8-.6-1-.4z" class="st0"/></g><g id="XMLID_158_"><path id="XMLID_567_" d="M333.1 35.3c-1.8 2.5-1.8 5.2-2.3 7.9-3.7 5.5-7.6 11-11.2 16.6-.4 2.2-.5 4.4-.9 6.7-.3 1.7-.7 3.5-1.3 5.1-.6 1.7-1.4 3-2.3 4.4-2.8 4.3-5.8 8.7-7.7 13.8"/><path id="XMLID_560_" d="M332.7 35.1a13.8 13.8 0 00-2 5.9c-.4 2.9-2.4 5.1-4 7.5l-4.6 6.7-2.4 3.6c-.7 1.1-.7 1.9-.9 3.2a33.6 33.6 0 01-4.8 14.8 71.6 71.6 0 00-7 12.7c-.1.2.9.5 1 .2a76 76 0 017.4-13.4c2.7-4.1 3.7-8.4 4.3-13.2.7-5.4 4.9-10 7.9-14.4 1.2-1.7 2.9-3.6 3.8-5.5.5-1 .4-2.5.6-3.6a11 11 0 011.7-4.2c.1-.2-.9-.5-1-.3z" class="st0"/></g><g id="XMLID_157_"><path id="XMLID_557_" d="M331.3 31.8c-1.4 2.5-.7 5-.6 7.5l-7.1 12.2c0 2.1.2 4.3.1 6.5a51 51 0 01-.5 4.1 13 13 0 01-1.1 3.5c-1.4 3.3-3.1 6.7-4 10.5"/><path id="XMLID_552_" d="M330.8 31.7a9.8 9.8 0 00-.8 5.1c.2 2.7-.8 4.2-2.1 6.5l-3.3 5.7c-1.1 1.9-1.5 2.7-1.4 4.8.1 3.8 0 7.6-1.3 11.2-1.4 3.7-3.2 7.2-4.2 11.2-.1.2.9.4 1 .1.9-3.7 2.5-7 4-10.5 1.4-3.5 1.8-7.2 1.6-10.9-.1-2.6.5-4.2 1.8-6.5l3.1-5.3c.9-1.5 2-2.8 2.1-4.5.1-2.4-.5-4.2.6-6.6 0-.4-1-.5-1.1-.3z" class="st0"/></g><g id="XMLID_156_"><path id="XMLID_550_" d="M329.4 28.4c-.9 2.5.5 4.8 1.1 7.2l-2.9 7.7c.3 2.1.9 4.2 1.1 6.4l.2 3.1.1 2.6c-.1 2.3-.4 4.7-.2 7.3"/><path id="XMLID_545_" d="M328.9 28.4c-.8 2.9 1.3 5.3.8 8-.3 1.4-1.1 2.9-1.6 4.3-.7 1.7-1 2.6-.7 4.4.5 2.7.8 5.4 1 8.2.2 3.1-.3 6.2-.1 9.4 0 .3 1 .4 1 .1-.1-3 .3-5.9.2-8.9-.1-2.9-.5-5.8-1-8.6-.3-1.8 0-2.8.7-4.4l1.4-3.8c1-2.8-1.5-5.4-.7-8.5.1-.4-.9-.5-1-.2z" class="st0"/></g><g id="XMLID_67_"><path id="XMLID_537_" d="M327.6 25c-.5 2.5 1.6 4.6 2.8 6.9.6 1 .9 2.2 1.3 3.3l2.1 6.2c.3.7.5 1.5.9 2.2l1.3 1.7 3.5 4"/><path id="XMLID_73_" d="M327.1 25c-.2 2 .7 3.6 1.8 5.2 1.3 2.1 2.1 4.3 2.9 6.7.7 2.2 1.3 4.7 2.4 6.6 1.2 2.1 3.2 3.9 4.8 5.7.2.2 1.1.1 1-.1-1.5-1.7-3.2-3.3-4.4-5.1-1.3-1.8-1.8-4.2-2.5-6.3-.8-2.2-1.4-4.5-2.6-6.6-1.2-2-2.6-3.7-2.4-6.1 0-.3-1-.3-1 0z" class="st0"/></g><g id="XMLID_142_"><path id="XMLID_543_" d="M324 57.3c-.8-1.6-1.3-3-1.9-4.4.5-.9 1.1-1.7 1.4-2.9l.5-3.2c.7-3.1 1.7-5.8 2.6-8.9l1.5-5.4c-.4-2.4-1.5-4.7-.6-7.4"/><path id="XMLID_538_" d="M324.5 57.4c-.5-1.1-1.4-2.5-1.6-3.7-.2-1.3.9-2.4 1.2-3.6.7-2.7 1-5.4 1.8-8.1.9-2.8 2-5.6 2.5-8.5.5-2.8-1.2-5.3-.3-8.3.1-.3-.9-.5-1-.2-.8 2.9.8 5.4.3 8.3-.5 3.2-1.8 6.3-2.8 9.4-.8 2.6-.9 5.7-1.9 8.2-.4.9-1 1.5-.9 2.3.1 1.2 1.2 3 1.7 4 .2.3 1.1.4 1 .2z" class="st0"/></g><g id="XMLID_141_"><path id="XMLID_536_" d="M308.5 65.4c-.5-1.9-.3-3.4-.2-4.8 1.5-1.2 3.1-2.4 4.2-4.2.7-1.2 1.2-2.8 1.9-4.2 2.1-4.2 4.9-7.6 7.3-11.5 1.5-2.5 2.8-5.2 4.3-7.5.4-2.6.2-5.1 1.7-8"/><path id="XMLID_531_" d="M308.9 65.5c-.6-2.6-.6-4.3 1.4-6 1.2-1 2.2-2.1 2.9-3.5 1.7-3.3 3.2-6.6 5.3-9.7 2.2-3.2 4.2-6.5 6.1-9.9l1.3-2.2c.5-1.1.6-1.9.7-3 .2-2 .6-3.8 1.4-5.7.1-.2-.8-.6-1-.3a19 19 0 00-1.4 5.7c-.1 1.2-.2 2-.7 3l-1.3 2.2a169 169 0 01-6.6 10.6c-1.1 1.7-2.2 3.3-3.1 5.1-.9 1.7-1.4 3.6-2.5 5.2l-2 2.2c-.4.4-1.4.9-1.7 1.4-.6 1.1 0 3.7.2 4.8.1.2 1.1.4 1 .1z" class="st0"/></g><g id="XMLID_140_"><path id="XMLID_528_" d="M292.9 73.6c-.2-2.2.7-3.7 1.4-5.1 2.4-1.5 5-3.1 6.9-5.5 1.2-1.5 2.2-3.5 3.3-5.2 3.5-5.2 8.1-9.2 12-14.1 2.5-3.1 5.1-6.3 7.1-9.6 1.6-2.6 2-5.4 3.9-8.6"/><path id="XMLID_523_" d="M293.4 73.6c-.1-2.9 1-4.8 3.3-6.3 1.7-1.1 3.4-2.3 4.7-3.9 1.7-2 2.8-4.5 4.3-6.6 1.6-2.2 3.3-4.1 5.1-6.1 3.6-3.9 7-7.9 10.1-12.1a33 33 0 003.8-5.9c1.1-2.4 1.9-4.9 3.2-7.3.2-.3-.8-.4-.9-.2-1.1 1.9-1.8 3.9-2.6 6a32.4 32.4 0 01-4.4 7.1c-3.4 4.4-7 8.6-10.7 12.7a59 59 0 00-5 6.2c-1.5 2.2-2.6 4.6-4.4 6.5-1 1.1-2.2 1.9-3.4 2.8-.8.6-2.1 1-2.7 1.7-1.1 1.3-1.5 3.6-1.5 5.2.1.4 1.1.5 1.1.2z" class="st0"/></g><g id="XMLID_138_"><path id="XMLID_521_" d="M277.3 81.7a7.7 7.7 0 013-5.5c3.1-2.4 6.9-3.8 9.6-6.7 1.7-1.9 3.1-4.1 4.7-6.2 4.9-6.3 11.4-10.9 16.7-16.8 3.4-3.8 6.8-7.8 9.9-11.7 2.2-2.8 3.8-5.8 6.1-9.2"/><path id="XMLID_516_" d="M277.8 81.7c.7-6.4 8-7.7 12.1-11.6 2.3-2.2 3.8-5 5.8-7.4 2-2.5 4.3-4.8 6.7-7 4.9-4.6 9.6-9.1 13.9-14.2 2.1-2.5 4.3-5 6.2-7.6 1.9-2.6 3.5-5.5 5.4-8.2.2-.2-.8-.4-1-.2-1.8 2.7-3.5 5.6-5.4 8.2-2 2.8-4.3 5.4-6.5 8-4.4 5.2-9.3 9.8-14.2 14.4a72.8 72.8 0 00-6.6 7c-1.9 2.4-3.5 5.2-5.9 7.3-4.1 3.6-10.8 4.9-11.6 11.2.1.3 1.1.4 1.1.1z" class="st0"/></g><g id="XMLID_131_"><path id="XMLID_514_" d="M261.8 89.8c.5-2.8 2.6-4.6 4.7-5.9 4.2-2.6 8.8-4.5 12.4-8 2.2-2.2 4-4.8 6.1-7.2 6.4-7.3 14.6-12.6 21.4-19.4 4.4-4.5 8.5-9.3 12.7-13.8 2.9-3.1 5.5-6.1 8.4-9.8"/><path id="XMLID_509_" d="M262.2 89.8c1-4.1 4.7-5.9 8.1-7.8 2.9-1.6 5.8-3.2 8.3-5.4 2.9-2.6 5-5.9 7.6-8.7 2.7-2.9 5.6-5.5 8.6-8.1a185 185 0 0017.7-16.6c5.2-5.8 10.6-11.3 15.4-17.5.1-.2-.8-.2-1 0-5.1 6.6-10.9 12.6-16.5 18.8-5.5 6-11.6 11.1-17.7 16.3-2.9 2.5-5.7 5-8.2 7.9-2.6 3-4.8 6.3-8 8.8-3 2.3-6.5 3.9-9.7 5.9-2.6 1.5-4.8 3.4-5.5 6.4-.1.4.9.3.9 0z" class="st0"/></g><g id="XMLID_130_"><path id="XMLID_507_" d="M246.2 98c.8-3.1 3.7-4.9 6.3-6.3 5.2-2.7 10.7-5.2 15.1-9.2 2.7-2.5 5-5.5 7.5-8.2C283 65.9 293 60 301.3 52.2c5.4-5.1 10.2-10.9 15.6-15.9 3.6-3.4 7.3-6.4 10.6-10.4"/><path id="XMLID_502_" d="M246.7 98c1.4-4.4 6.2-6.2 10-8.1a53 53 0 0010.8-6.8c3.5-3 6.1-6.7 9.4-10 3.1-3.1 6.5-5.9 10-8.7 7.3-5.7 14.4-11.4 20.8-18.1 3.4-3.6 6.7-7.2 10.3-10.6 3.4-3.2 6.9-6.2 10-9.8.2-.2-.7-.5-.9-.2-4.9 5.6-10.7 10.2-15.8 15.6-5.2 5.5-10.3 11-16.1 15.7-5.6 4.6-11.6 8.8-16.9 13.7-5.4 5-9.5 11.3-15.9 15.3-3.3 2.1-6.9 3.7-10.4 5.6-2.7 1.4-5.1 3.2-6.1 6.2-.3.3.7.5.8.2z" class="st0"/></g><g id="XMLID_53_"><path id="XMLID_494_" d="M230.6 106.1c1.2-3.4 4.7-5.2 8-6.7a70.7 70.7 0 0017.8-10.5c3.2-2.8 5.9-6.1 8.9-9.2 9.2-9.4 21-15.9 30.8-24.7 6.4-5.8 11.8-12.5 18.4-18 4.3-3.6 9-6.8 12.8-10.9"/><path id="XMLID_59_" d="M231.1 106.2c1.5-3.7 5.3-5.4 8.7-7 3.8-1.8 7.6-3.6 11.1-5.8 7.1-4.4 11.9-11 18-16.5 6-5.4 12.6-9.9 19-14.7a154 154 0 0018.4-16.8c3.3-3.4 6.7-6.7 10.4-9.7 3.8-3.1 7.8-5.9 11.1-9.5.2-.2-.7-.5-.9-.2-5.9 6.3-13.3 10.9-19.3 17-5.9 6-11.5 12-18.2 17.2-6.6 5.1-13.5 9.7-19.8 15.1-6.6 5.7-11.7 12.9-19.1 17.6-4 2.5-8.3 4.5-12.6 6.5-3.2 1.5-6.4 3.2-7.7 6.6-.2.2.8.5.9.2z" class="st0"/></g><g id="XMLID_66_"><path id="XMLID_500_" d="M233.3 105.8c.8-1.5 2.2-2.3 3.7-3 1.3-.6 2.9-1 4.4-1.3 3.9-.9 7.8-1.9 11.5-3.2l5.8-4.8 1.5-1.4c2.6-2.6 4.9-5.6 7.4-8.4 7.2-8.3 15.9-15.1 24.7-21.9l2.2-1.8 1-1a42.2 42.2 0 002.9-4l.2-.3.5-.6c2.6-3.1 5.1-6 8-8.6l2.3-1.8c2.6-1.9 5.4-3.4 7.2-6.3"/><path id="XMLID_495_" d="M233.8 105.9c2.8-4.3 9.5-4.5 14.1-5.7 1.7-.5 3.8-.9 5.4-1.7 2.1-1.1 4.1-3.2 5.8-4.8 3.3-3 6-6.5 8.9-9.9a107 107 0 0110.7-10.6c3.6-3.1 7.3-6.1 11.1-9.1 1.9-1.5 3.9-2.8 5.5-4.5 1.3-1.4 2.4-3 3.5-4.5 2.7-3.8 6.2-7.5 9.8-10.4 2.9-2.4 6.3-4.1 8.4-7.3.1-.2-.8-.3-1 0-1.9 2.9-4.8 4.5-7.5 6.5-2.6 2-4.9 4.3-7.1 6.8-2.3 2.6-4.1 5.5-6.4 8.1-2.6 2.9-6 5.1-9.1 7.6-5.9 4.7-11.7 9.6-16.9 15.1-5.1 5.5-9.5 11.7-15.7 16-3.6 2.6-9 3.1-13.2 4.2-2.9.7-5.7 1.6-7.4 4.2 0 .1.9.2 1.1 0z" class="st0"/></g><g id="XMLID_65_"><path id="XMLID_493_" d="M236 105.6c1.1-1.2 2.4-1.5 3.9-1.7 1.3-.2 2.8-.2 4.2-.2 3.7.1 7.5 0 11-.3l5.7-5.2 1.5-1.5c2.7-2.8 4.9-5.9 7.3-8.9 7.7-9.7 17-18 26.8-25.7.8-.7 1.7-1.3 2.4-2.1l1-1.3c1-1.5 1.6-3 2.1-4.4l.1-.5v-.2-.3c.1-1.6.5-2.2 1.5-2.6l.8-.2c.8-.2 1.9-.1 1.6-1.7"/><path id="XMLID_488_" d="M236.5 105.7c2.5-2.3 6.3-1.8 9.4-1.7l5.7-.1c1.2 0 2.8.1 3.9-.3.8-.3 1.9-1.8 2.4-2.2l2-1.8c6.3-5.8 10.9-13.1 16.8-19.3 6.2-6.6 13-12.4 20.1-18 2.6-2.1 5-4.9 5.6-8.4l.1-1.3c.4-1.8 1.3-1.4 2.7-2.1.9-.4 1.1-.6 1-1.7 0-.3-1-.3-1 0 .1 1.8-2.1 1.3-3.1 2.3-.7.7-.6 1.6-.8 2.5-.6 4.6-4.2 7.4-7.5 10.1a180 180 0 00-19.3 17.7c-6.1 6.6-11.1 13.9-17.8 20-.5.5-1 1.1-1.6 1.5-1.2.7-2.5.6-3.8.7h-7.7c-2.9 0-5.9 0-8.1 2-.1.1.8.3 1 .1z" class="st0"/></g><g id="XMLID_64_"><path id="XMLID_486_" d="M238.7 105.4c1.3-.9 2.7-.7 4.1-.5a147.5 147.5 0 0014.5 3.7c1.7-2 3.7-3.8 5.6-5.7l1.5-1.6c2.7-2.9 4.9-6.2 7.3-9.4 8.1-11.1 18-20.9 28.9-29.6.9-.7 1.9-1.5 2.6-2.4l.9-1.5a13 13 0 001.4-5.2l-.1-.5-.2-.2h-.5c-2.4 0-4 1.6-5.1 3.4l-.8 1.4c-.9 1.6-1.7 3.3-4 3"/><path id="XMLID_481_" d="M239.1 105.5c1-.5 3.1-.5 4.3-.3l2.4.6 4.3 1.2 7.1 1.7c.2 0 .5.1.6-.1 2.9-3.3 6.2-6 9-9.4 2.7-3.3 5-6.8 7.6-10.2 5.3-6.9 11.3-13.2 17.7-19 3.2-2.9 6.5-5.5 9.8-8.3a11 11 0 003.2-4.2c.4-1 1.7-4 1-5-.6-.9-2.9-.3-3.7 0a6.8 6.8 0 00-2.8 2.5c-1.3 1.8-1.9 4.9-4.8 4.8-.7 0-.2.4.2.4 2.3.1 3.3-1.1 4.4-3.1.7-1.2 1.3-2.5 2.3-3.4.8-.7 1-.7 2.2-.8 1.8-.1 1.1-.3 1.2.7.1.8-.3 1.9-.6 2.6-1.4 4-4.6 6-7.7 8.6-2.9 2.5-5.8 5-8.6 7.7a147 147 0 00-15 16.6l-6.7 9.1c-2.4 3-5.1 5.5-7.8 8.2-.8.8-1.3 1.6-2.4 1.6-1 0-2.1-.5-3-.7l-6.9-1.9c-2.7-.7-5.4-1.6-8-.3-.4.3.5.5.7.4z" class="st0"/></g><g id="XMLID_63_"><path id="XMLID_477_" d="M241.4 105.1c1.6-.6 3 .1 4.3.8l3.8 2.1 10 5.6c1.5-2.2 3.6-4.1 5.5-6.1l1.6-1.7c2.7-3.1 4.9-6.6 7.2-10a156.4 156.4 0 0131-33.5c1-.8 2.1-1.7 2.8-2.7l.9-1.8c.8-2 1.1-4.1.8-6.1a1 1 0 00-.2-.6l-.5-.1-1.1.3c-5 1.5-8.6 5.4-11.7 9.4l-2.3 3c-2.6 3.3-5.3 6.6-9.6 7.6"/><path id="XMLID_470_" d="M241.8 105.4c2.2-.6 4.5 1.1 6.3 2.1l3.7 2.1 7.5 4.2c.2.1.6.3.8.1 2.7-3.7 6.2-6.6 9-10.2 2.4-3.1 4.5-6.5 6.8-9.8A146.6 146.6 0 01302 65.4c2.7-2.3 6-4.3 7.2-7.7.5-1.3 1.8-6-.2-6.7-1.8-.6-5.1 1.7-6.5 2.6-7 4.9-10.1 15.3-18.8 17.7-.3.1.5.5.8.5 6.7-1.8 9.9-8.5 14.2-13.3 2.3-2.7 5-5 8.3-6.3.5-.2 1.5-.8 2-.3s0 2.7-.1 3.4c-.3 2.1-1.2 4-2.6 5.5-2.5 2.6-5.7 4.7-8.4 7.2a160.6 160.6 0 00-22.5 25c-2.6 3.7-4.9 7.5-7.7 11.1-2.7 3.4-6 6.1-8.5 9.6l.8.1-11.9-6.7c-2.2-1.2-4.3-2.6-6.9-1.9l.6.2z" class="st0"/></g><g id="XMLID_62_"><path id="XMLID_468_" d="M244.1 104.9c1.8-.3 3.2.9 4.5 2l3.7 3.3 9.5 8.6c1.4-2.4 3.5-4.4 5.4-6.6l1.6-1.8c2.7-3.2 4.9-6.9 7.2-10.5a154.8 154.8 0 0133.1-37.3c1.1-.9 2.2-1.8 3-3a12.5 12.5 0 001.1-8.9l-.4-.7a.9.9 0 00-.7 0l-1.6.6c-7.5 3-13.1 9.2-18.2 15.4l-3.8 4.6c-4.3 5.1-8.9 10-15.3 12.2"/><path id="XMLID_462_" d="M244.1 105.1c2.2-.1 3.8 1.7 5.3 3l4.4 4 7.5 6.8c.2.2.8.1.9-.1 2.6-4.3 6.6-7.5 9.5-11.6 3-4.2 5.5-8.8 8.5-13 5.9-8.5 12.7-16.4 20.1-23.5 3.5-3.4 7.7-6.2 11-9.7 1.3-1.4 2-2.9 2.3-4.7.2-1.3.8-5.4-.5-6.3-1.5-1-4.9 1.2-6.1 1.9a41.3 41.3 0 00-10.3 8.3c-7.5 7.9-13.4 18.5-24 22.6-.5.2.5.4.7.3 7.8-3 13-9.4 18.1-15.6 2.9-3.5 5.9-7.1 9.3-10.2 1.5-1.3 3-2.6 4.7-3.7 1.1-.7 5.6-4 7-2.8.5.5.4 2.7.4 3.4 0 1.2-.2 2.3-.6 3.4-.9 2.8-3 4.4-5.2 6.1a161.7 161.7 0 00-27.5 29.8c-3 4.2-5.5 8.7-8.5 13-3 4.4-7.2 7.8-10 12.4l.9-.1-11-9.9c-2.1-1.9-4.1-4.2-7.1-4-.4-.2-.4.2.2.2z" class="st0"/></g><g id="XMLID_61_"><path id="XMLID_460_" d="M246.8 104.6c2.1 0 3.5 1.7 4.7 3.2l3.5 4.4 9 11.5c1.3-2.6 3.3-4.8 5.3-7l1.6-1.9c2.8-3.4 4.9-7.3 7.1-11.1a157.8 157.8 0 0135.2-41.2c1.2-1 2.4-2 3.2-3.3.4-.7.7-1.5.9-2.3.6-2.6.5-5.3-.5-7.7-.1-.3-.3-.6-.5-.7-.3-.1-.6 0-.9.1l-2.1.9c-10 4.5-17.6 13-24.8 21.4l-5.4 6.3a61 61 0 01-20.9 16.9"/><path id="XMLID_454_" d="M247 104.9c2.6.3 4.4 3.3 5.8 5.2l3.6 4.6 7.2 9.2c.1.2.8.5.9.2 2.6-5.1 7.4-9 10.4-13.9 3.1-4.9 5.9-10 9.1-14.8a158 158 0 0123.7-27.3c3.7-3.4 9.2-6.3 10.1-11.6.3-1.9.8-8.1-2.4-8-1.8.1-4.1 1.7-5.7 2.5a46.4 46.4 0 00-7.4 5.1 99.4 99.4 0 00-11.7 11.7C282 77.6 274 88.6 261.7 94c-.4.2.5.6.8.5 19.6-8.7 28.3-30.7 46.1-41.9 1.2-.7 2.3-1.4 3.6-2 .7-.3 2.8-1.8 3.5-1.6 1.1.3 1.3 2.8 1.4 3.7.2 1.7 0 3.5-.5 5.1-.9 2.6-3.1 4.2-5.1 5.9a176 176 0 00-27.3 30c-3.5 5-6.5 10.3-9.6 15.5a60.1 60.1 0 01-6.1 8.2 28 28 0 00-4.8 6.5l.9.2-10.5-13.4c-2-2.6-3.9-5.7-7.4-6.1-.7-.3 0 .2.3.3z" class="st0"/></g><g id="XMLID_45_"><path id="XMLID_133_" d="M249.5 104.4c2.3.3 3.8 2.5 5 4.5l11.8 20.1c1.4-3.6 4.4-6.4 6.8-9.4 2.8-3.6 4.8-7.6 7-11.6a161.7 161.7 0 0137.2-45.1c1.3-1.1 2.6-2.2 3.4-3.6a13.1 13.1 0 00-.3-11c-.2-.3-.3-.7-.7-.8-.4-.2-.8 0-1.2.1-13.8 5.7-24.2 17.3-34 28.6s-19.9 23.1-33.4 29.4"/><path id="XMLID_51_" d="M249.4 104.6c2.9.6 4.3 3.7 5.6 6l3.5 5.9 7.4 12.5c.1.2.9.4 1 .1 1.3-3.2 3.7-5.6 5.8-8.2 2.3-2.7 4.1-5.7 5.9-8.8a160.3 160.3 0 0136.9-46.8c2-1.8 4.7-3.4 6-5.9 1.6-3 1.4-7.2.1-10.3-.5-1.2-.9-2-2.3-1.9-2.3.2-5.3 2.3-7.3 3.5A113 113 0 00284.3 76c-9.7 11.2-19.7 22.8-33.4 29.4-.3.2.6.4.8.3C274 95.1 285.6 72.1 304.1 57c2.5-2 5.1-3.9 7.8-5.6l3.5-2 2.2-1.1c.5-.4 1-.4 1.6-.3.7-.2 1.1.1 1.2.9 1.8 2.6 1.2 8.3-.5 10.8s-4.6 4.3-6.8 6.3a157.4 157.4 0 00-24.8 28c-4.1 5.9-7.6 12.2-11.2 18.5-1.7 3.1-3.6 6-5.9 8.6a29.7 29.7 0 00-5.4 7.7l1 .1-9.4-15.9c-1.9-3.2-3.7-8-7.7-8.9-.4 0-1 .3-.3.5z" class="st0"/></g></g><g id="XMLID_473_"><g id="XMLID_114_"><path id="XMLID_446_" d="M227.1 107.5l-24.4 12.9c-5 2.6-10 5.3-15.3 7.2-10.3 3.7-21.3 4.4-31.9 6.8-10.6 2.4-21.5 7.1-27.4 16.2a44.8 44.8 0 00-5.2 28c.3 4.2.8 8.5 2.8 12.3 2.9 5.6 8.5 9.4 14.5 11.4s12.3 2.4 18.6 2.7c23.1 1.2 46.3 1.8 69.5 1.8 5.9 0 12.1-.1 17.3-2.9 3.4-1.9 6.2-4.8 8.4-7.9 4.3-6 7.1-13.1 8.1-20.5 1.7-13.3-2.7-26.8-9.6-38.3s-16.3-21.3-25.6-30.9"/><path id="XMLID_134_" d="M226.7 107.3l-20.1 10.6c-6.4 3.4-12.7 7-19.6 9.4-12.7 4.5-26.5 4.5-39.3 8.9-10.1 3.5-19.3 9.8-23.1 20.1a48 48 0 00-2.4 18.8c.2 5.7.6 12 3.7 17 6.1 9.9 18.6 12.1 29.2 12.7a1001 1001 0 0064.7 1.9c6.5 0 13.2.5 19.6-.7 11.7-2.3 18.8-13.7 21.8-24.5 8.3-30-14.9-55.8-34-75.6-.2-.2-1.1-.2-.9.1 16.9 17.5 35.9 37.9 35.5 63.9a46.5 46.5 0 01-4.1 18.3 33.8 33.8 0 01-11.2 14.4c-5.8 3.8-12.8 3.7-19.5 3.7l-19.9-.2a1496 1496 0 01-42.5-1.3c-12.3-.6-27.3-.2-36.1-10.5-4-4.7-4.9-10.8-5.3-16.8-.4-5.8-.3-11.7 1.1-17.4 2.9-11.8 11.8-19.3 22.9-23.4 13.1-4.8 27.3-4.6 40.4-9.3 6.6-2.3 12.7-5.8 18.9-9l20.9-11.1h-.7z" class="st0"/></g><g id="XMLID_204_"><path id="XMLID_452_" d="M224.4 114.5l-22.1 11.1a114 114 0 01-13.8 6.2c-9.2 3.2-19.2 3.8-28.7 6a41.4 41.4 0 00-24.7 14.3 21 21 0 00-2.8 6.1 46.9 46.9 0 00-1.2 18.3c.3 3.7.9 7.4 2.7 10.6 2.6 4.8 7.6 8.1 12.8 9.8 5.3 1.7 10.9 2 16.4 2.3 20.4 1 40.8 1.5 61.2 1.5h1.6c4.7 0 9.6-.3 13.7-2.5 3-1.6 5.5-4.1 7.5-6.8a39 39 0 007.4-17.8c.3-1.8.4-3.7.5-5.5.1-4.9-.7-9.8-2.1-14.6a63.3 63.3 0 00-6-13.6c-6-10-14.3-18.4-22.4-26.6"/><path id="XMLID_447_" d="M224 114.3l-17.7 8.9c-5.7 2.8-11.3 5.9-17.3 8-11.3 4.1-23.5 4.2-34.9 7.8-8.8 2.8-17.9 7.9-21.5 16.8a39.7 39.7 0 00-2.3 17.4c.3 5.1.8 10.8 3.7 15.2 5.3 8 15.5 10.1 24.4 10.8a808.4 808.4 0 0057.8 1.8c5.6 0 11.5.4 17.1-.5 10.3-1.7 16.7-10.9 19.8-20.2a48.7 48.7 0 00-4.4-37.3c-6-11.4-15.2-20.7-24.1-29.7-.2-.2-1.1-.2-.9.1 15.2 15.4 31.8 33.3 30.4 56.5-.6 10.1-5.3 22.1-14.2 27.7-5.2 3.2-11.6 3.1-17.5 3.1l-17.8-.1c-11.8-.2-23.7-.5-35.5-1.1-11-.5-24.7 0-32.7-9-3.8-4.2-4.6-9.8-5.1-15.2a46 46 0 011.4-16.9c3.1-10.1 12.4-15.9 22.1-18.9 11.4-3.6 23.6-3.7 34.9-7.8 5.7-2.1 11.1-4.9 16.5-7.7l18.5-9.3c.4-.2-.5-.5-.7-.4z" class="st0"/></g><g id="XMLID_203_"><path id="XMLID_445_" d="M221.7 121.5l-19.7 9.2c-4 1.9-8.1 3.8-12.3 5.2-8.2 2.7-17 3.3-25.5 5.2a38.4 38.4 0 00-21 11.1l-1 1.3a16.7 16.7 0 00-2.3 5.3c-1.4 5-1.3 10.4-.6 15.5.4 3.1 1 6.2 2.5 8.9 2.3 4.1 6.6 6.8 11.2 8.3 4.6 1.4 9.4 1.7 14.2 2 17.6.9 35.2 1.3 52.8 1.3h1.3c4.1 0 8.3-.3 11.9-2.1a20 20 0 006.5-5.8A34.4 34.4 0 00247 167a47 47 0 00-6.4-24.3 113.7 113.7 0 00-19.1-22.3"/><path id="XMLID_440_" d="M221.3 121.3c-10 4.7-19.9 10-30.2 13.8-9.9 3.6-20.6 3.8-30.7 6.7-7.7 2.2-16.7 6.4-20.1 14.3-2 4.6-2.3 9.7-1.9 14.6.3 4.5.8 9.4 3.3 13.3 4.3 6.7 12.8 8.9 20.3 9.5 11 1 22.2 1.1 33.3 1.4l17 .2c4.9 0 9.8.3 14.7-.3 9.2-1.1 15.1-8.3 18.3-16.5A40 40 0 00243 146a97 97 0 00-20.9-25.6c-.2-.2-1.1-.3-.9 0 13.3 13 27.3 28.3 25.3 48.4-.9 8.4-5 18.2-12.3 23-4.4 2.9-9.8 2.9-14.8 2.9l-15.5-.1c-10.3-.1-20.6-.4-30.9-.9-9.7-.4-22 .1-29-7.9-3.1-3.5-3.9-8.1-4.4-12.6-.5-4.9-.5-10.1 1-14.9 2.7-8.5 11.5-13.2 19.5-15.7 10.1-3.1 20.9-3.3 30.9-6.8 5.2-1.8 10.1-4.2 15-6.5l16.1-7.5c.3-.3-.6-.6-.8-.5z" class="st0"/></g><g id="XMLID_151_"><path id="XMLID_438_" d="M219 128.5l-17.4 7.4c-3.5 1.5-7.1 3-10.8 4.2-7.2 2.2-14.9 2.8-22.2 4.4a35.8 35.8 0 00-18.5 9.5l-.9 1.1c-.9 1.4-1.5 2.9-1.8 4.4a32.4 32.4 0 002.4 20c2.1 3.3 5.7 5.5 9.6 6.7 3.8 1.2 7.9 1.4 12 1.6a826 826 0 0044.5 1.1h1.1c3.4 0 7-.2 10-1.7a18 18 0 005.6-4.7 31 31 0 006.1-27 34 34 0 00-3.9-10 85.4 85.4 0 00-15.8-18"/><path id="XMLID_433_" d="M218.6 128.3c-8.5 3.6-16.9 7.6-25.6 10.7-8.7 3.1-17.9 3.4-26.8 5.8-6.4 1.7-14.9 5-18.1 11.3-2 3.8-2.1 8.4-1.7 12.5a26 26 0 002.9 11c3.7 5.8 11 7.7 17.4 8.3 9.1.9 18.4 1 27.5 1.2 8.7.2 17.7.8 26.5.1 7.8-.6 13.1-5.8 16.4-12.7a33.4 33.4 0 00-.1-27.5 70.3 70.3 0 00-17.5-21.3c-.2-.2-1.1-.2-.9 0a86.5 86.5 0 0115.3 17.2c4.3 7 6.1 15.5 4.7 23.6-1.2 7-5.3 15.5-12 18.7-3.7 1.8-7.9 1.7-11.9 1.7l-12.9-.1c-8.6-.1-17.2-.4-25.7-.7-8.3-.4-19.2.1-25-7.2a21 21 0 01-3.6-11.1c-.5-4.1-.5-8.4 1.1-12.3 2.7-6.8 11.5-10.3 18.1-12.1 8.8-2.4 18.1-2.7 26.7-5.7 8.9-3.1 17.4-7.2 26.1-10.9.2-.2-.7-.6-.9-.5z" class="st0"/></g><g id="XMLID_150_"><path id="XMLID_431_" d="M216.3 135.5l-15 5.5c-3.1 1.1-6.1 2.3-9.3 3.2-6.2 1.7-12.7 2.2-19 3.6a32.2 32.2 0 00-15.9 7.8l-.8.9a9.8 9.8 0 00-1.3 3.6 24 24 0 00.7 10 17 17 0 002.3 5.6c1.8 2.5 4.8 4.2 7.9 5.1 3.1.9 6.5 1.1 9.7 1.3 12.1.6 24.2.9 36.2.8h.9c2.8 0 5.7-.2 8.2-1.3 1.8-.8 3.3-2.2 4.7-3.6 2.6-2.8 4.5-6.3 5.5-9.9l.7-3.1c.5-2.8.5-5.6.1-8.4-.4-2.8-1.3-5.7-2.9-8.3a56.8 56.8 0 00-12.5-13.7"/><path id="XMLID_426_" d="M215.9 135.4c-7.5 2.7-14.9 5.9-22.5 8.2-7 2.1-14.4 2.6-21.5 4.3-5.5 1.3-12 3.6-15.7 8.1-3.8 4.7-2.1 14.3.7 19.1 2.7 4.6 8.3 6.3 13.2 7 7.3.9 14.8.9 22.1 1.1 7.7.2 15.5.6 23.2.1 6.4-.4 10.8-4.1 13.9-9.6a26.8 26.8 0 002-21.1 44.5 44.5 0 00-14.4-17.8c-.2-.2-1.2-.2-.9.1 4.8 4.1 9.6 8.5 12.7 14 3.2 5.8 3.7 13 1.9 19.4-1.7 5.9-6 12.6-12.4 14.2-3.4.8-7 .5-10.4.5l-10.8-.1c-6.9-.1-13.7-.3-20.6-.7-7.1-.4-16.1-1-19.3-8.5-2.3-5.3-3.7-14 1-18.3a35.1 35.1 0 0117-7.6c7.2-1.5 14.5-2.2 21.5-4.6 6.8-2.3 13.4-4.9 20.1-7.4.3-.2-.6-.5-.8-.4z" class="st0"/></g><g id="XMLID_149_"><path id="XMLID_424_" d="M213.6 142.5l-12.6 3.7c-2.6.8-5.2 1.6-7.9 2.2-5.2 1.2-10.5 1.7-15.7 2.8a30.4 30.4 0 00-13.4 6.1l-.7.7c-.6.9-.8 1.8-.8 2.8-.2 2.5.4 5 1.3 7.3.5 1.4 1.2 2.7 2.2 3.9 1.5 1.7 3.9 2.9 6.3 3.6 2.4.6 5 .8 7.5 1 9.3.5 18.6.6 27.9.6h.7c2.2 0 4.4-.1 6.3-.9 1.4-.6 2.6-1.5 3.7-2.5a20 20 0 004.9-7.3l.8-2.3c.6-2.1.9-4.1.8-6.3-.1-2.2-.6-4.5-1.8-6.5-2.3-4-6-7.1-9.2-9.4"/><path id="XMLID_419_" d="M213.2 142.4c-6 1.7-11.9 3.6-17.8 5.2-6 1.6-12.3 2.1-18.4 3.5a31 31 0 00-13.2 5.9c-3.5 3-1.7 9 0 12.5 2 4.1 5.9 5.9 10.2 6.7 6 1 12.3.9 18.3 1 5.9.1 11.9.4 17.8.1 4.6-.2 8.1-2.2 10.9-5.9a20.7 20.7 0 004.1-16.1c-1.2-5.8-6.2-10.2-10.8-13.5-.2-.2-1.2-.1-.9.1a30 30 0 019.4 9.7 17.6 17.6 0 010 14.7c-1.9 4.6-5.5 9.4-10.7 10.3-5.2.9-10.9.3-16.1.3-5.3-.1-10.6-.2-15.9-.5-6.2-.3-12.8-1.2-15.6-7.5-1-2.2-1.6-4.6-1.6-7.1 0-2.8 1.2-4.3 3.4-5.8a36 36 0 0114.1-5.2c5.5-1 11.1-1.7 16.5-3.2l17-5c.5 0-.4-.3-.7-.2z" class="st0"/></g><g id="XMLID_148_"><path id="XMLID_417_" d="M210.9 149.5l-10.3 1.8-6.4 1.2c-4.2.7-8.4 1.1-12.5 2.1a32 32 0 00-10.8 4.4l-.6.5c-.4.6-.4 1.3-.4 1.9a11 11 0 004 6.8c1.3 1 2.9 1.6 4.7 2 1.7.4 3.5.5 5.3.6 6.5.4 13.1.4 19.6.4h.5c1.5 0 3-.1 4.5-.5 1-.3 1.9-.9 2.8-1.5 1.7-1.2 3.2-2.9 4.3-4.6l.9-1.5a13 13 0 001.5-4.3c.2-1.5.1-3.3-.7-4.8a12.6 12.6 0 00-6-5.1"/><path id="XMLID_412_" d="M210.8 149.3l-13.9 2.5c-4.5.8-9 1.3-13.5 2.2-3.6.7-7.2 1.7-10.4 3.4-1.1.6-2.7 1.3-3.3 2.5-.7 1.5.1 3.5.8 4.9 4 7.5 14.3 6.4 21.5 6.6 4.4.1 8.9.3 13.3 0 3.3-.2 5.9-1.4 8.3-3.7a16 16 0 005-10.2c.1-4.1-3.3-7.2-6.9-8.7-.2-.1-1.1.2-.8.3 4.2 1.8 7.6 5.6 6.5 10.4-.9 3.9-3.7 7.9-7.1 10-2.6 1.6-5.7 1.4-8.6 1.4h-6.9c-5-.1-10.4.1-15.4-.9-2.6-.5-4.9-1.6-6.6-3.6-1.2-1.4-2.7-3.8-2.4-5.7.4-2.5 4.8-4 6.7-4.7a46 46 0 017.3-1.9c8.8-1.6 17.7-3 26.5-4.5.6 0 .5-.4-.1-.3z" class="st0"/></g><g id="XMLID_36_"><path id="XMLID_119_" d="M208.1 156.6c-10.3-.1-21-.2-30.3 4.2l-.5.4c-.2.3-.1.8.1 1.1.9 1.5 2.8 2 4.5 2.3a95 95 0 0022.2.3c1.7-.5 3.2-1.6 4.6-2.7.8-.6 1.7-1.3 2.3-2.2s.8-2.1.3-3-1.9-1.4-2.7-.7"/><path id="XMLID_43_" d="M208 156.3c-8-.1-16.2-.2-23.9 1.8-1.6.4-8.2 1.6-7.1 4 .9 2.1 4.5 2.5 6.3 2.7 4.2.6 8.5.7 12.7.7 3.4 0 7.1.3 10.2-1.4 2.1-1.2 6.3-3.6 5.8-6.6-.4-1.8-2.3-2.4-3.8-1.7-.3.2.6.5.8.3l2 2-.2.8c-.1.7-.9 1.4-1.4 1.9-.9.9-2 1.6-3.1 2.3-2.6 1.7-5.4 1.8-8.4 1.9-2.9 0-5.8.1-8.8-.1-3-.1-6.5-.2-9.2-1.4-1.3-.6-1.9-.6-1.4-2.1.4-1.2.5-1.1 1.6-1.6a49.3 49.3 0 0112.2-2.9 119.5 119.5 0 0115.7-.6z" class="st0"/></g></g><g id="XMLID_699_"><g id="XMLID_94_"><path id="XMLID_404_" d="M128.5 348l11.9.4c-5.8-11.7-6-25.2-6-38.2 0-15.5 0-31.4 5.4-45.9.1-.2.2-.5.4-.6.7-.5 1.5.4 1.8 1.2a456.2 456.2 0 0017.1 37.8c2.5 4.8 5 9.6 6.7 14.7 1.2 3.4 1.9 7 3.1 10.4a97.5 97.5 0 007.1 15.4 8 8 0 002 2.8c2 1.6 4.9 1.3 7.4.9 0-7-4.3-13.2-7.9-19.3a99.8 99.8 0 01-13.9-48.5c-.1-4.1 0-8.2-.3-12.2-.3-3.8-1-7.6-.9-11.5.3-14.8 12.3-27.7 11.9-42.5 0-.6-.1-1.2-.5-1.7s-1.2-.6-1.9-.7l-32.8-3.5c-1.8-.2-3.7-.3-5.1.8-1.4 1.2-1.5 3.3-1.6 5.1 0 6.2.1 12.4-1.4 18.4-2.5 9.8-9.3 19-7.8 29.1.4 2.6 1.3 5.1 2 7.6 1.7 6.3 1.8 13 2 19.6.2 12.8.4 25.7-2.1 38.2-.6 2.9-1.3 6-.8 8.9.4 2 1.4 3.9 1.7 5.9.3 2.6 0 6 2.5 6.8"/><path id="XMLID_136_" d="M128.7 348.2l11.9.4c.1 0 .3 0 .3-.2a81.6 81.6 0 01-6-35.6c-.1-12.5-.2-25.3 2.3-37.6a78 78 0 012.2-8.3c.1-.3.6-2.5.9-2.6.9-.3 1.3.9 1.6 1.3 1 1.5 1.5 3.7 2.2 5.4 2.5 6.1 5.2 12.1 8 18.1 2.8 5.9 5.7 11.6 8.6 17.4a96.9 96.9 0 016.6 17.2 98.4 98.4 0 008 18.9c.9 1.8 1.9 3.4 3.8 4.2 2.1.9 4.4.5 6.6.2l.2-.1c-.1-5.3-2.4-10-5-14.6-2.9-4.9-5.8-9.7-8.1-14.9a100 100 0 01-8.3-32.2c-.5-6.1-.1-12.2-.6-18.3-.5-5.9-1.5-11.6-.2-17.5 2-9.6 7.5-18 10-27.5.6-2.3 1-4.7 1.1-7.1.1-1.5.3-3.3-1.1-4.2-1.5-.9-4-.7-5.6-.9l-9.7-1-18.3-1.9c-4-.4-7.5-.2-7.9 4.5-.5 5.9.1 11.7-1 17.5-1 5.4-3.4 10.4-5.4 15.6a31.8 31.8 0 00-3 14.2c.2 2.6 1 5.1 1.7 7.6.9 3 1.5 6 1.9 9.1.8 7.2.7 14.5.7 21.8 0 6.7-.1 13.4-.9 20.1-.4 3.5-1 6.9-1.7 10.3-.6 3-.9 5.9.1 8.9.4 1.4 1 2.7 1.2 4.2.2 1.2.1 2.5.4 3.8.3 1.6.9 2.6 2.4 3.3.4.2 1 0 .4-.3-2-.9-1.9-3.6-2-5.3-.2-1.8-.6-3.4-1.2-5.1-1.5-4.6-.2-8.8.6-13.3 1.6-9.1 1.9-18.5 1.8-27.7-.1-8.6.3-17.5-1.6-26-1-4.4-2.8-8.5-2.7-13 .1-3.8 1.3-7.5 2.6-11 1.4-3.8 3.2-7.5 4.4-11.3 1.3-4 2-8.1 2.2-12.3l.1-6.5c0-1.9-.2-4.1.4-5.9 1.1-3.3 4.5-2.9 7.3-2.6l7.2.8 13.5 1.4 6.8.7c1.1.1 2.3.1 3.4.4.5.1 1.8.5 2.1 1 .3.5.2 1.6.2 2.3-.1 7.3-3.2 14.2-6 20.8-2.9 6.8-6 13.9-5.9 21.5 0 4.5.9 8.9 1.1 13.3.2 4.5 0 8.9.3 13.4 1.1 16.5 6.3 32.3 14.8 46.5 2.1 3.5 4.3 7 5.7 10.9.5 1.4 2 5.5.5 6.5-1.6 1.1-6.2-1-6.6-1.6-.8-.9-1.3-2.1-1.9-3.2-1.9-3.7-3.9-7.4-5.4-11.3-1.6-4.1-2.5-8.3-3.8-12.5-2.7-8.3-7.3-15.9-11.1-23.8-4-8.2-7.7-16.6-11.2-25.1-.6-1.5-1.4-6-3.7-6.1-.9 0-1.1.5-1.4 1.3a111.5 111.5 0 00-5.1 32.2c-.2 8.5-.3 17 .1 25.5.4 8.1 1.5 16.2 4.7 23.7.3.7 1 1.5.4 2.2-.3.3-2.9-.1-3.5-.1l-7.5-.3c-.9-.1-.2.4.1.4z" class="st0"/></g><g id="XMLID_198_"><path id="XMLID_410_" d="M131.9 329.3l10.1.4a70.5 70.5 0 01-5.6-32.5c-.1-5.6-.1-11.3.2-16.8.3-4.3.7-8.6 1.7-12.9.7-3.1 1.6-6.1 2.8-9.1l.3-.5c.6-.4 1.3.4 1.6 1.1 4.5 11.1 9.6 22 15.2 32.5 2.2 4.1 4.5 8.2 6 12.6 1 2.9 1.7 6 2.8 8.9 1.6 4.6 4 8.9 6.3 13.1.5.9 1 1.8 1.8 2.4 1.7 1.4 4.2 1.1 6.4.7.1-6.1-3.7-11.4-6.7-16.6a88.4 88.4 0 01-11.8-41.8c-.1-3.5 0-7-.3-10.5-.3-3.3-.9-6.6-.8-9.9.2-12.8 10.4-23.8 10-36.6 0-.5-.1-1.1-.4-1.4-.4-.4-1-.5-1.6-.6l-28.2-3c-1.5-.2-3.2-.3-4.4.7-1.2 1-1.3 2.8-1.3 4.4-.1 5.3 0 10.6-1.3 15.7-2.1 8.4-8 16.3-6.8 24.9.3 2.2 1.1 4.4 1.7 6.5 1.5 5.4 1.5 11.1 1.6 16.8.1 11 .3 22-1.9 32.8-.5 2.5-1.2 5.1-.7 7.6.3 1.7 1.2 3.3 1.4 5 .3 2.2 0 5.2 2.1 5.8"/><path id="XMLID_405_" d="M131.9 329.5l10.1.4c.1 0 .6 0 .5-.2a69.9 69.9 0 01-5.6-30.7c-.2-10.9-.5-22.1 2.1-32.8.3-1.1 1.6-7.9 3.1-7.7.4 0 1.2 2.7 1.4 3.1l1.9 4.4a385 385 0 006.7 14.6c2.4 4.9 5 9.8 7.5 14.6a75 75 0 015.9 15.1 77.6 77.6 0 007.2 15.8c2.1 3.7 5 3.9 8.9 3.3l.3-.2c-.1-4.4-1.8-8.2-4-12-2.4-4.2-4.9-8.2-6.8-12.6a87.3 87.3 0 01-7.6-30.1c-.4-5.1 0-10.2-.5-15.2-.5-4.9-1.1-9.5-.1-14.4 1.8-8.3 6.6-15.7 8.6-23.9.5-2.1 2.2-7.9-.3-9.2-1.5-.8-3.7-.6-5.3-.7l-8.3-.9c-5.4-.6-10.7-1.3-16.1-1.7-2.7-.2-5.4 0-6.1 3.2-.4 2.2-.2 4.5-.2 6.7-.1 2.6-.2 5.3-.6 7.9-.8 4.9-2.8 9.4-4.7 14-1.6 3.8-3 7.9-2.9 12.1.1 4.8 2.3 9.3 2.9 14 .7 5.6.6 11.4.6 17.1 0 6.1-.1 12.3-.7 18.4a85 85 0 01-1.3 8.6c-.6 2.8-1.2 5.6-.5 8.5.6 2.3 1.1 4.4 1.4 6.8.2 1.5.5 2.8 2 3.4.2.1 1.2 0 .7-.2-1.8-.8-1.7-2.8-1.8-4.4a16 16 0 00-.8-3.8c-1.3-4.3-.5-7.7.3-12 1.4-7.6 1.6-15.4 1.6-23.1 0-7.5.3-15.3-1.3-22.7-.7-3.1-1.9-6-2.2-9.2-.3-3.5.5-6.9 1.6-10.2 2.2-6.2 5.3-11.9 6-18.5.4-3.7.3-7.4.4-11.2 0-.7 0-1.4.2-2.1.4-1.8.7-1.8 2.5-2.4 2.5-.8 4.8-.3 7.4 0l11.7 1.3 4.9.5c2.1.2 7.5-.1 8.3 2.6.4 1.3-.1 3.3-.3 4.6l-.8 3.8c-1 3.5-2.4 6.9-3.8 10.2-2.3 5.4-4.7 10.9-5.1 16.8-.2 3.4.4 6.8.7 10.2.4 3.8.2 7.6.3 11.4a88.4 88.4 0 0011.4 41.1c1.5 2.7 3.2 5.3 4.6 8a24.1 24.1 0 012.4 7.7c.2.6.1 1.1-.4 1.6-1.7.4-3.4.1-5-.7-1.2-1-1.9-2.6-2.6-3.9l-2.6-4.8a74.4 74.4 0 01-4-10.2 116 116 0 00-9-20.4 317.9 317.9 0 01-12.4-26.5c-.6-1.3-1-3.6-2.1-4.4-.9-.7-1.6-.4-2.2.4-1 1.4-1.4 3.8-1.8 5.4a66.2 66.2 0 00-2.7 18.5c-.4 8.4-.3 17 .3 25.4a56 56 0 005.3 22l.5-.2-10.1-.4c-.1-.3-.2.1.4.1z" class="st0"/></g><g id="XMLID_197_"><path id="XMLID_397_" d="M135.4 310.6l8.2.3c-4.5-8.2-5-17.7-5.3-26.7-.1-4.6-.3-9.2-.1-13.7a49.1 49.1 0 013.7-17.9l.3-.4c.5-.4 1.1.3 1.3.9 4 9.4 8.5 18.5 13.4 27.2 1.9 3.4 3.9 6.8 5.3 10.4l2.5 7.3c1.4 3.8 3.5 7.3 5.5 10.8.4.7.9 1.5 1.5 2 1.5 1.1 3.6.8 5.5.5.1-5.1-3-9.5-5.5-13.9a74.5 74.5 0 01-9.9-35.2c-.1-2.9 0-5.9-.2-8.8-.2-2.8-.8-5.5-.7-8.3.1-10.7 8.5-20 8.2-30.6 0-.4-.1-.9-.3-1.2-.3-.4-.9-.5-1.4-.5l-23.6-2.6c-1.3-.1-2.7-.2-3.7.6s-1.1 2.3-1.1 3.6c-.1 4.4 0 8.8-1.1 13.1-1.8 7-6.7 13.6-5.7 20.7.3 1.9.9 3.6 1.4 5.4 1.2 4.5 1.2 9.3 1.3 14 .1 9.1.1 18.3-1.8 27.3-.4 2.1-1 4.3-.6 6.3.3 1.4 1 2.8 1.1 4.2.2 1.8 0 4.3 1.7 4.9"/><path id="XMLID_367_" d="M135.5 310.8l8.2.3c.1 0 .4 0 .3-.2a57 57 0 01-5.2-25.4c-.3-9.3-.8-18.9 1.9-28l1-2.9c.1-.4.2-.9.5-1.2l.3-.8 1 1.1c1.2 1.9 2 4.5 2.9 6.5 1.9 4.2 3.9 8.3 6.1 12.4 2.1 4.1 4.5 8.1 6.7 12.2 2 3.8 3.3 7.7 4.7 11.8 1.5 4.4 3.7 9 6.4 12.8 1.8 2.5 4.4 2.5 7.3 2l.2-.1a21 21 0 00-3.4-10.3c-2-3.6-4.1-7.1-5.8-10.9a77 77 0 01-6.1-25.1c-.3-4.5-.1-9-.6-13.5-.5-4.1-.8-8.1.3-12.1 1.8-7.1 5.9-13.4 7.1-20.7.3-1.7 1.2-5.3-1-6.1-1.2-.4-2.7-.4-4-.5l-7.4-.8c-4.5-.5-9.1-1.2-13.7-1.5-3-.2-4.5.9-4.7 4-.2 4.2 0 8.4-.9 12.5-.8 3.8-2.6 7.3-4 10.8a21.9 21.9 0 00-2 10c.2 2.1.9 4.2 1.5 6.2.5 2.1.9 4.3 1 6.4.8 10 .7 20.6-.8 30.5-.3 2.3-.9 4.6-1.3 6.9-.4 2.3.1 4 .7 6.2.6 2.3-.1 5.6 2.4 6.8.4.2 1 0 .4-.3-1.3-.6-1.2-2.3-1.3-3.5-.1-1.3-.4-2.4-.8-3.7-1.1-3.7 0-7.1.7-10.8a131 131 0 001.3-18.8c0-6.1.3-12.4-1-18.3-.7-3-1.9-5.9-1.8-9.1.1-2.9 1-5.7 2.1-8.4 2.2-5.5 4.4-10.4 4.7-16.4.2-2.7-.4-6 .4-8.6 1.1-3.7 7.8-1.8 10.7-1.4l9.4 1 4.9.5c1 .1 3.4.1 3.9 1.1.3.6.1 2.2 0 2.9-.4 5.2-2.6 10-4.6 14.8-2 5-3.8 10-3.5 15.4.2 3.3.8 6.5.8 9.8.1 3.1 0 6.2.3 9.3.5 6.2 1.8 12.3 3.7 18.2 2 6 5 11.3 8 16.8 1.3 2.3 2.5 4.7 3.1 7.3.2.8.5 2.2-.2 2.9-.8.7-2.6-.1-3.3-.4-2.1-.9-2.9-3.2-4-5.1a49.4 49.4 0 01-3.9-8.4c-1-2.9-1.8-5.8-3.1-8.6-2.6-5.7-6-11.1-8.9-16.7-2.9-5.6-5.6-11.4-8.2-17.2-.4-.9-.9-3.1-2.4-3-1.8.1-2.3 4.1-2.8 5.5-2.1 7-2.2 14.5-2.1 21.8.1 6.5.2 13.1 1.3 19.5.5 3.1 1.4 6.2 2.6 9.1.3.6.8 1.3.9 2 .3 1.4-.7.9-1.8.9l-5.5-.2c-.6.3.1.8.4.8z" class="st0"/></g><g id="XMLID_196_"><path id="XMLID_357_" d="M138.8 291.9l6.3.3c-3.9-6.5-4.5-14-4.9-21-.2-3.6-.4-7.1-.3-10.7a32.8 32.8 0 013.1-13.8l.2-.3c.4-.3.9.3 1.1.8a199 199 0 0011.5 22c1.6 2.7 3.3 5.4 4.6 8.3l2.2 5.8c1.2 3 3 5.7 4.7 8.4.4.6.7 1.1 1.3 1.5 1.2.9 3 .6 4.5.3.1-4.1-2.3-7.7-4.3-11.3a63 63 0 01-7.8-28.5c-.1-2.4 0-4.8-.2-7.1-.2-2.2-.6-4.5-.6-6.7 0-8.6 6.7-16.1 6.3-24.7a2 2 0 00-.3-1c-.3-.3-.7-.4-1.1-.4l-19-2.1c-1-.1-2.2-.2-2.9.5-.8.7-.9 1.9-.9 2.9-.1 3.5-.1 7-1 10.4-1.5 5.6-5.5 10.8-4.7 16.5.2 1.5.7 2.9 1.1 4.3.9 3.6.9 7.4.9 11.1 0 7.3 0 14.6-1.6 21.8-.4 1.7-.8 3.4-.5 5.1.2 1.1.8 2.2.9 3.4.2 1.5-.1 3.4 1.3 3.9"/><path id="XMLID_352_" d="M138.6 292.1l6.3.3c.1 0 .8-.1.7-.3-4.6-8-4.9-17.7-5.2-26.8-.1-4.9 0-9.8 1.5-14.5.3-1.1.7-2.3 1.3-3.3.6-1.1.3-1.1 1.1.5l3.2 6.7c1.9 3.8 4 7.6 6.1 11.4 2.5 4.3 5.3 8.4 7 13a57 57 0 005.4 11.1c.8 1.3 1.5 2.8 3 3.4 1.3.5 2.9.2 4.2-.1.1 0 .5-.1.5-.3-.1-6.3-5-11.9-7.3-17.5a61.4 61.4 0 01-4.7-20.3c-.2-3.3-.1-6.7-.4-10-.4-3.5-.8-6.8.1-10.3 1.3-5.6 4.5-10.6 5.4-16.3.3-1.6 1-4.3-.7-5.2-.9-.5-2.5-.3-3.6-.4l-6.7-.7c-3.4-.4-6.9-1-10.3-1.1-1.2 0-2.5.1-3.3 1.2-.7 1-.5 2.4-.6 3.4a34.9 34.9 0 01-3.3 15.7 24.1 24.1 0 00-2.4 7.9c-.3 3.6 1.4 6.9 1.8 10.4.9 7.7.6 16-.4 23.6-.4 3.7-2.2 7.8-1.3 11.6.4 1.5.6 2.8.8 4.3.1 1 .3 1.7 1.3 2.2.2.1 1.1-.2.8-.3-1.6-.8-1.3-4-1.7-5.5-.8-2.9-.2-5.2.3-8.1.9-4.9 1.2-9.8 1.3-14.7.1-5 .4-10.1-.5-15-.4-2.3-1.4-4.6-1.6-7-.2-2.6.6-5.1 1.6-7.4 1.7-4.3 3.6-8.3 4-13 .2-2.2-.3-4.9.4-7 .9-3 7.3-1.4 9.7-1.1l7.6.9c1.2.1 2.6.1 3.8.4.9.3 1.7.6 2.1 1.4.2.5 0 1.4 0 1.9-.3 4.5-2.3 8.7-4 12.9a26.7 26.7 0 00-2.2 11.8c.2 2.5.6 5 .7 7.5l.3 7.8a64 64 0 008.5 26.6c1.2 2.1 2.4 4.2 3.1 6.6.2.8.8 2.4.1 3.1-.5.5-3.7-1-4.1-1.3-.4-.4-.7-1.1-1.1-1.7-1.3-2.1-2.6-4.2-3.6-6.5-1.1-2.4-1.8-5-2.9-7.5-2-4.2-4.7-8.1-7-12.2-2.6-4.7-5.1-9.4-7.4-14.3-.5-1.1-1.7-5.3-3.6-3.4-.7.7-1.1 2.5-1.5 3.5l-1.2 4.2c-.5 2.4-.6 4.9-.7 7.3-.2 10.1.1 21.7 5.3 30.7l.7-.3-6.3-.3c-.3-.1-1.1.4-.4.4z" class="st0"/></g><g id="XMLID_195_"><path id="XMLID_350_" d="M142.2 273.2l4.4.3c-3.3-4.8-4-10.2-4.6-15.2-.3-2.5-.5-5.1-.5-7.6 0-1.9.2-3.8.7-5.6.4-1.3 1-2.7 1.8-4.1l.2-.2c.3-.2.7.2.9.6a143 143 0 009.7 16.7c1.4 2 2.8 4 3.8 6.1l1.9 4.3a42.2 42.2 0 004.9 7.2c1 .6 2.3.4 3.5.1.1-3.1-1.7-5.9-3.1-8.6a49.3 49.3 0 01-5.8-21.8c-.1-1.8 0-3.6-.2-5.5-.2-1.7-.5-3.4-.5-5.1 0-6.6 4.8-12.3 4.4-18.8 0-.3 0-.5-.2-.7-.2-.2-.5-.3-.8-.3l-14.4-1.7c-.8-.1-1.6-.2-2.2.3-.6.5-.7 1.4-.7 2.2-.1 2.6-.1 5.3-.8 7.8-1.2 4.2-4.2 8.1-3.7 12.3.1 1.1.5 2.2.8 3.2.7 2.7.6 5.5.6 8.3-.1 5.4-.1 11-1.4 16.3-.3 1.3-.7 2.5-.4 3.8.1.9.5 1.7.6 2.5.1 1.1-.1 2.6 1 2.9"/><path id="XMLID_345_" d="M142.2 273.4l4.4.3c.1 0 .6 0 .5-.2a40 40 0 01-5-20.4c-.2-3.6.1-7.1 1.6-10.4l.8-1.6.1.3c.3.1 1.1 2.2 1.3 2.5.9 1.7 1.7 3.3 2.7 4.9 3.5 6.1 7.9 11.6 10.8 18 1.2 2.8 2.9 6.4 5.2 8.4 1.4 1.3 3 1.1 4.8.7.1 0 .3 0 .3-.2-.1-4.9-3.6-9-5.4-13.4a48.7 48.7 0 01-3.5-16.5c-.1-2.6-.1-5.1-.4-7.6a20 20 0 01.2-7.3c1-4.4 3.5-8.4 3.9-13 .1-1.2.3-2.5-.8-3.1-.4-.2-1.2-.2-1.7-.2l-4.8-.6c-2.9-.3-5.8-.8-8.7-1-1.1-.1-2.4-.2-3.1.9-.9 1.3-.4 3.8-.5 5.3a25 25 0 01-2.3 8.5c-.8 1.9-1.7 3.8-2 5.8-.4 2.6.7 4.9 1.1 7.4.9 6.1.4 13-.4 19-.4 2.6-1.5 5.4-1 8l.6 3.6c.1.7.3 1.2.9 1.6.2.1 1.2 0 .9-.1-1.1-.7-.8-2.5-1.1-3.7-.3-1.6-.6-2.3-.4-4 .5-3.1 1.2-6 1.4-9.2.4-5.8.9-12.2-.5-17.9a13 13 0 011-9.3c1.1-2.5 2.2-4.8 2.6-7.6l.3-3.9c.1-2.1-.4-3.7 2.5-4.1 1.4-.2 3.4.4 4.8.6l5.3.6c1.8.2 4.1 0 4.9 2.1.4.9-.3 2.8-.5 3.8-.6 2.7-1.8 5.2-2.7 7.8-1.9 5.5-.7 10.9-.5 16.6a53 53 0 003.4 17.1c1 2.6 2.3 5 3.6 7.4.7 1.3 1.7 3.1 1.8 4.6.1 1.8-.1 1.8-1.9 1.1-1.7-.7-2.1-1.3-3.1-2.8-1.9-2.8-3-5.9-4.7-8.9-1.6-2.9-3.6-5.6-5.4-8.4a152 152 0 01-5.1-8.7c-.8-1.5-1.5-3.7-2.6-5-.5-.6-.4-.6-1.2-.8-.2 0-.5-.1-.6.1-3.6 4.4-2.9 11.4-2.3 16.6.6 5.7 1.5 11.3 4.7 16.3l.5-.2-4.4-.3c-.9 0-.9.4-.3.5z" class="st0"/></g><g id="XMLID_194_"><path id="XMLID_343_" d="M145.6 254.5l2.5.2a20.4 20.4 0 01-4.2-9.5c-.4-1.5-.6-3-.7-4.5a7 7 0 01.4-3.2c.3-.8.9-1.6 1.5-2.4l.2-.1c.2-.1.5.2.7.4 2.3 4.2 5 8 7.9 11.5l3.1 4 1.6 2.7a28.5 28.5 0 003.9 4.4c.7.3 1.7.1 2.5-.1.1-2.1-1-4-1.9-5.9a36.3 36.3 0 01-3.7-15.1l-.2-3.8c-.1-1.2-.4-2.3-.4-3.5-.1-4.5 3-8.5 2.5-12.9 0-.2 0-.4-.2-.5-.1-.2-.4-.2-.6-.2l-9.8-1.2c-.5-.1-1.1-.1-1.5.2-.4.3-.5.9-.5 1.4-.1 1.7-.2 3.5-.7 5.1-.9 2.8-3 5.3-2.7 8.2l.5 2.1c.4 1.8.3 3.7.3 5.5a49 49 0 01-1.2 10.8c-.2.8-.5 1.7-.4 2.5l.4 1.7c.1.7-.1 1.7.6 1.9"/><path id="XMLID_338_" d="M145.4 254.7l2.5.2c.1 0 .9-.1.7-.3a25 25 0 01-4.9-13.9c-.1-1.3.1-2.6.7-3.8.1-.3.5-1.1.8-1.2.6-.3.7.4 1 1 1.3 2.2 2.6 4.2 4.1 6.3 1.3 1.9 2.8 3.6 4.2 5.4 1.5 1.8 2.6 3.8 3.9 5.7 1.9 2.7 3.4 4.9 6.8 4l.3-.2c0-2-.8-3.5-1.6-5.3a34 34 0 01-2.8-7.5c-1.2-4.8-1.4-9.8-1.8-14.7-.4-4.3 2.2-8 2.5-12.2.1-1.5.1-1.8-1-2.4-1-.5-2.9-.4-3.9-.5l-3.9-.5c-2.1-.3-4.4-1-4.7 1.6-.4 2.6-.5 4.9-1.6 7.3-.8 1.7-1.7 3.3-1.8 5.2-.1 2.2.8 4.3.8 6.6 0 2.4-.1 4.9-.4 7.3-.2 2.4-1.2 4.7-1.3 7.1 0 1.1.1 3.8 1 4.5.2.2 1.1-.1.9-.2-.7-.6-.7-2.3-.8-3.1-.2-1.6.3-3.1.7-4.7.5-2.4.6-4.8.7-7.3.1-2.4.3-4.9-.2-7.3-.3-1.3-.6-2.3-.4-3.6.2-1.4.9-2.7 1.5-4 .9-2 1.5-3.9 1.7-6.1.1-1.3-.3-2.9 1.4-3.1 1.5-.2 3.4.4 4.9.6 1.2.2 2.7.1 3.9.5 2 .6 1.6 2 1.2 3.7-.5 2.4-1.5 4.7-2 7.1-.5 2.2-.1 4.1.1 6.3.3 2.8.2 5.6.7 8.4a38 38 0 002.2 8c.8 2.1 2.7 4.5 2.9 6.8.1 2.3-2.4.7-3.3-.3l-2-2.6c-1.5-2.2-2.8-4.3-4.5-6.4a126.1 126.1 0 01-6.3-8.7c-.5-.9-1.3-3-2.1-3.4-2.2-1.3-3.4 3.8-3.4 5.1-.1 5 1.9 10.9 5 14.9l.7-.3a21 21 0 00-2.5-.2c-.4-.3-1.2.1-.6.2z" class="st0"/></g><g id="XMLID_190_"><path id="XMLID_336_" d="M149.1 235.8l.6.2c-2-1.4-3.1-2.8-3.9-3.8l-1-1.4c-.2-.3-.2-.6.1-.8l1.2-.8.1-.1a32.3 32.3 0 006.4 6.5l2.4 1.9 1.4 1.2c.7.6 1.5 1 2.3 1.4l.5.2c.5.1 1-.1 1.6-.3.2-1.2-.3-2.2-.7-3.3-.6-1.5-1-3.1-1.3-4.8l-.5-3.6-.2-2.1-.3-1.9c-.2-2.5 1.1-4.6.7-7l-.1-.3-.3-.1-5.2-.8c-.3 0-.6-.1-.8.1a1 1 0 00-.3.7c-.1.8-.2 1.7-.5 2.5-.5 1.3-1.7 2.6-1.7 4l.1 1c.1.9 0 1.8-.1 2.7-.2 1.8-.4 3.6-1 5.3-.1.4-.3.8-.3 1.3l.1.8c0 .4-.1.9.2 1"/><path id="XMLID_331_" d="M149 236l.6.2c.2 0 .8 0 .4-.2-1.1-.9-2.2-1.8-3.1-2.9a7.9 7.9 0 01-1.2-1.5c-.1-.3 0-2 .5-2 .3 0 2.5 3 2.9 3.4l2.9 2.6c2.4 2 5.8 6 9.3 4.8l.1-.1c0-2.5-1.3-4.9-1.8-7.3-.5-2.6-.7-5.2-1-7.8-.3-2.4 1.2-5 .6-7.2-.3-1.2-1-1.1-2.3-1.3-1.1-.2-4-1.2-5.1-.5-.5.3-.4 1.1-.5 1.6-.3 1.4-.8 2.4-1.5 3.6-1.1 2.3-.4 5.1-.8 7.5-.3 1.9-1.8 4.8-.8 6.7.1.3 1.1.3 1 .1-.9-1.6.3-4 .6-5.7.3-1.5.5-3.1.5-4.6 0-1.1-.3-2.1.1-3.2.2-.7.7-1.3 1.1-2 .4-.8.4-1.5.7-2.3-.1-1 .5-1.5 1.7-1.4l.9.1c.6 0 3 .1 3.4.6.4.5-.1 2.4-.2 3-.3 1.3-.6 2.6-.5 4a62 62 0 001.6 10.5c.2.9.8 1.9.9 2.7l.3.8c-.8 1.6-1.8 1.9-2.8.8l-4-3.2a37.2 37.2 0 01-4.6-4.3c-.6-.7-1.3-2.1-2.1-2.5-.8-.4-2.3.2-2.5 1.2-.3 1.5 3.7 5 4.9 5.3-.6-.1-.8.3-.2.5z" class="st0"/></g><g id="XMLID_28_"><path id="XMLID_97_" d="M152.5 217.1a7 7 0 00-6 3.8c-.2.5-.4 1.1-.2 1.6.2.4.5.7.8.9a7.9 7.9 0 009.6-1.1c.4-.4.8-1 .8-1.6.1-1.1-.8-2-1.7-2.5a8.9 8.9 0 00-3.9-1.2"/><path id="XMLID_34_" d="M152.4 216.9c-2.6.2-5.9 1.7-6.5 4.5-.6 2.6 3.5 3.4 5.4 3.3 2.3 0 5.8-1.1 6.7-3.4 1.2-3-3.7-4.3-5.8-4.5-.4 0-1 .3-.3.4 1.9.2 6 1.3 5 4-.7 2.1-3.7 3.1-5.6 3.2-2.2 0-5.5-1.2-3.9-3.9 1.1-1.9 3.2-3 5.3-3.2.6-.1.1-.5-.3-.4z" class="st0"/></g></g><g id="XMLID_773_"><g id="XMLID_89_"><path id="XMLID_323_" d="M225.1 210.1c7.3 3.4 15.8 1.8 23.7 0 2.1-.5 4.2-1 5.7-2.5"/><path id="XMLID_120_" d="M224.7 210.2c4.7 2.1 9.8 2.4 14.8 1.8a88 88 0 008.7-1.5c2.4-.5 4.8-1.1 6.7-2.7.2-.1-.7-.4-.9-.2-3.3 2.8-9.1 3.3-13.2 3.9-5.2.7-10.5.7-15.4-1.4-.2-.2-1.1-.1-.7.1z" class="st0"/></g><g id="XMLID_193_"><path id="XMLID_329_" d="M225.1 210.3l.4 2.2.1 1.7.4 2 .9 3.5.8 2.7 1.1 3.3.5 2.6c.3 1.1.9 2.3 1.6 3.3l.2.2.3.1h2a28 28 0 014.4-10.2l2.4-4 3 5.1 1.4 2.5 1.1 2.4c.1.4.3.8.6 1.1l.5.5c.3.3.4.7.4 1 1 .2 2 .2 3-.1-.3-3.4.2-7.1 1-10.9.8-3.8 1.9-7.6 3-11.7"/><path id="XMLID_324_" d="M224.6 210.3c.5 2.3.6 4.6 1.2 6.8.7 2.8 1.7 5.5 2.5 8.2.5 2 .6 4.4 2.1 6.1.9 1 1.8.7 3.2.7.2 0 .6 0 .6-.3.7-5.2 4.2-9.8 6.7-14.2l-1 .1 4 6.8c.7 1.2 1.1 2.6 1.8 3.8.5.8 1.1 1.1 1.3 2.1l.3.1c1.2.2 2.2.1 3.4-.1l.3-.2c-.5-7.7 2-15.2 3.9-22.5.1-.3-.9-.3-1 0-1.7 6.3-3.7 12.6-4 19.1-.1 1.3.2 4.6-2 2.9-1.1-.8-1.6-2.6-2.1-3.8-1.4-2.9-3.2-5.7-4.9-8.4-.1-.2-.8-.1-1 .1-2.6 4.5-6 9.1-6.8 14.3l.6-.3c-1.3 0-1.8 0-2.6-.9-.6-.7-.9-1.8-1.2-2.6l-1.7-6.4-1.7-6.1c-.5-1.9-.5-3.8-.9-5.6 0-.1-1 .1-1 .3z" class="st0"/></g><g id="XMLID_192_"><path id="XMLID_322_" d="M225.2 210.5c.1 1.4.1 2.8-.1 4.1l-.4 3.2c-.1 1.2 0 2.5.1 3.7l.5 6.5.5 5.2c.3 2.2.7 4.3.7 6.5 0 1.7-.2 3.3-.1 5 .1 2.2.8 4.5 1.7 6.6l.4.5.6.1h3.3a44 44 0 014.1-20.2l2.9-7.8 3.5 10.6 1.6 5.2a46 46 0 011 5.1c.1.8.2 1.7.6 2.4l.8 1c.4.7.5 1.5.2 2.1 1.6.5 3.3.5 5 .1a72.5 72.5 0 01-1.2-20.9c.6-7.2 1.9-14.4 3.3-21.7"/><path id="XMLID_317_" d="M224.7 210.4c.1 2.2-.2 4.3-.4 6.5-.2 2.1 0 4.3.1 6.4.3 4.6.8 9 1.3 13.6.5 4-.3 8 .9 12 .3.9.6 2.5 1.5 3.1 1 .6 3.2.2 4.3.2l.4-.1c-1.1-9.6 3.7-19.2 7-28l-1-.1c1.5 4.6 3.1 9.1 4.5 13.7a62 62 0 012.2 9.7c.6 1.1 1.3 1.7 1 3.1l.3.2c1.8.5 3.6.5 5.4.1l.2-.2c-3.1-14.1-.5-28.6 2.2-42.6.1-.3-.9-.4-1-.1-2.4 12.3-4.8 25-3.1 37.6.1 1 .7 2.3.5 3.3.5.8.2 1.3-.8 1.4-.6.6-1.2.7-1.8.1-1.8-.9-.2.2-1-1.2s-1.4-2.5-1.7-4.1l-.6-3.5c-1.3-6-3.6-11.8-5.5-17.6-.1-.2-.9-.3-1-.1-2.1 5.8-4.6 11.6-6.1 17.6-.7 2.9-.9 5.7-1 8.7 0 1.3.2 1.4-1.1 1.5-.5.1-1.6 0-2-.4-1-.9-1.4-4.2-1.6-5.3-.4-2.8.1-5.7-.2-8.6-.3-3-.8-5.9-1-8.9-.2-3.1-.6-6.2-.6-9.3 0-2.9.6-5.8.5-8.7.1-.2-.8-.3-.8 0z" class="st0"/></g><g id="XMLID_191_"><path id="XMLID_315_" d="M225.2 210.6c0 2-.2 4-.5 6-.3 1.6-.7 3.1-.9 4.7-.2 1.8-.2 3.6-.2 5.4v9.6c0 2.6 0 5.1.2 7.7.2 3.2.6 6.4.4 9.6-.1 2.5-.7 5-.7 7.5-.1 3.3.6 6.7 1.8 9.9.1.3.2.6.5.7l.8.2h4.7c-2.1-9.6.8-20.1 3.8-30.1l3.4-11.6 3.9 16.2c.6 2.6 1.3 5.3 1.8 8 .5 2.6.8 5.2.9 7.8 0 1.2.1 2.5.7 3.7l1 1.6c.5 1 .6 2.3.1 3.2 2.2.7 4.7.8 6.9.3-2.8-9.9-3.7-20.4-3.3-30.9s1.9-21.1 3.7-31.8"/><path id="XMLID_310_" d="M224.7 210.5c0 3-.5 5.8-1.1 8.8-.6 3.1-.6 6.1-.6 9.2 0 6.3 0 12.5.4 18.8.3 3.5.1 6.8-.3 10.3-.3 2.8-.4 5.5.2 8.3.3 1.6.6 4.7 2 5.7 1.3.9 4.6.3 6 .3.1 0 .3 0 .3-.2-2.8-13.9 3.3-28.5 7.2-41.6l-1-.2c1.7 7.1 3.6 14.3 5.2 21.5.8 3.7 1.1 7.4 1.4 11.1.1 1.1.2 2.1.7 3.1.8 1.7 1.8 2.7 1.1 4.7-.1.2.3.3.4.3 2.5.7 4.9.8 7.4.3l.1-.1c-5.8-20.5-3-42 .4-62.7 0-.3-.9-.5-1-.3a239.6 239.6 0 00-3.7 33.7c-.1 5.1.1 10.2.6 15.3.3 2.8.8 5.6 1.3 8.4.2 1.2.8 2.5.9 3.6l.2.9c-.5.9-1.2 1.2-2.1 1.1a9 9 0 01-4-.6l.4.3c1-2.8-1.4-4.4-1.7-7.1-.5-3.7-.5-7.4-1.3-11.1-1.5-7.5-3.5-14.9-5.4-22.4-.1-.2-.9-.5-1-.2-2.6 8.7-5.6 17.4-7.1 26.3a43 43 0 00-.6 11.9c.1.9.8 2.8-.1 3.4-.3.2-2.5 0-2.8 0-1.9-.3-1.9-1.6-2.4-3.2l-.7-3.1c-.8-4.8.6-9.5.5-14.3-.1-4.5-.6-8.9-.6-13.4V224c.2-4.5 1.6-8.8 1.7-13.4.1-.2-.9-.3-.9-.1z" class="st0"/></g><g id="XMLID_188_"><path id="XMLID_308_" d="M225.2 210.8c-.1 2.7-.4 5.3-1 7.8-.5 2.1-1.1 4.1-1.4 6.2-.4 2.3-.5 4.7-.6 7.1a522 522 0 00-.4 12.7l-.2 10.2c.1 4.2.5 8.5.1 12.7-.3 3.3-1.1 6.6-1.3 9.9-.3 4.4.5 8.9 1.9 13.1.1.4.3.7.6.9.3.2.7.2 1 .2h6c-3.4-12.8 0-26.8 3.4-40l4-15.4 4.4 21.7c.7 3.6 1.4 7.1 1.9 10.7.5 3.5.7 7 .7 10.5 0 1.7-.1 3.4.7 5 .4.7.9 1.4 1.2 2.2.7 1.4.6 3 0 4.4 2.8 1 6 1.2 8.9.4-4.1-13.1-5.6-27-5.4-40.9.2-13.9 1.9-27.9 4-41.9"/><path id="XMLID_303_" d="M224.7 210.7c-.2 3.9-.9 7.6-1.9 11.4a58 58 0 00-1.2 11.7c-.3 8.4-.7 16.8-.4 25.3.2 4.2 0 8.2-.7 12.3-.6 3.9-1.1 7.7-.6 11.6.2 1.6.5 3.3 1 4.9.3 1 .5 2.9 1.4 3.6.5.3 1 .3 1.5.4 2 .2 4.1 0 6 0 .1 0 .4 0 .4-.2a62.2 62.2 0 01.6-27.8c1.9-9.3 4.5-18.4 6.9-27.5l-1-.1c1.9 9.5 4 19 5.7 28.5a99 99 0 011.4 14.3c0 1.7 0 3.4.7 5 1 2.3 2.3 3.8 1.2 6.5-.1.1.3.2.3.2 3.1 1 6.2 1.2 9.4.4l.2-.2c-8.3-26.9-5.5-55.4-1.4-82.7 0-.3-.9-.4-1-.2-2.9 19-5.1 38.3-3.5 57.5a142.3 142.3 0 003.2 19.5l.8 3.2c.7 2.4.4 2.9-2.5 2.9-1.3 0-4 .2-4.4-1.3-.2-.6.3-1.5.2-2.2-.3-2.2-2-3.7-2.3-6-.5-4.6-.3-9.3-1-14-1.6-10.6-4.1-21-6.2-31.5 0-.2-.9-.4-1-.1-2.4 9.5-5.1 18.9-7 28.5a83.5 83.5 0 00-1.5 20.6c.1 1.1 1.3 5 .8 5.9-.4.6-1.9.3-2.7.3-1.3 0-2.8.4-3.6-.9-1.2-1.8-1.4-5.3-1.7-7.3-.6-4.6.2-8.9.8-13.4.7-4.6.4-9.3.2-14-.1-4.7.1-9.4.2-14.1.2-5.3 0-10.7.8-16 .7-5 2.4-9.8 2.6-14.9.3-.2-.7-.3-.7-.1z" class="st0"/></g><g id="XMLID_123_"><path id="XMLID_295_" d="M225.3 211a63 63 0 01-1.4 9.7c-.6 2.6-1.5 5.1-2 7.7-.6 2.9-.7 5.9-.9 8.9l-.9 15.7c-.2 4.2-.5 8.4-.5 12.7 0 5.3.3 10.6-.3 15.8-.5 4.1-1.6 8.2-2 12.4-.5 5.5.4 11.1 2 16.4.1.4.3.9.7 1.2.4.2.8.3 1.3.3h7.4c-4.6-16.1-.7-33.4 3.1-50l4.5-19.2 4.8 27.2c.8 4.5 1.6 8.9 2.1 13.4.5 4.4.7 8.8.6 13.1 0 2.1-.2 4.3.7 6.2l1.5 2.7c.8 1.7.7 3.8-.2 5.5 3.5 1.3 7.3 1.5 10.9.6a162.4 162.4 0 01-7.5-51c0-17.3 1.9-34.6 4.4-51.9"/><path id="XMLID_284_" d="M224.8 210.9c-.3 4.8-1.3 9.3-2.6 14a68.3 68.3 0 00-1.9 14.2c-.6 10.2-1.4 20.4-1.2 30.6.1 4.9.1 9.7-.7 14.4-.8 5-1.9 9.9-1.6 15 .1 2.2.5 4.3.9 6.4.3 1.5.6 4.7 1.9 5.7.5.4 1.3.4 1.9.5h7.4c.1 0 .3 0 .3-.2a79.2 79.2 0 01-.2-34.6c2.1-11.6 5.1-23 7.8-34.5l-1-.1c2.1 11.9 4.5 23.9 6.3 35.9a107 107 0 011.3 17.9c0 2.3-.1 4.5.9 6.6 1.3 2.7 2.5 4.8 1.1 7.8-.1.1.3.2.3.3a20 20 0 0011.4.6l.2-.2c-10.9-33.3-8-68.8-3.1-102.8 0-.3-.9-.5-1-.2-3.4 24-5.9 48.4-3.3 72.6a157 157 0 002.7 16.7l1.9 7.7 1.2 4c.5 2.3-1.3 2.1-3.4 2.2-1.3 0-2.6-.1-3.9-.4-1-.2-1.5-.1-1.7-1.2-.2-.8.5-2.2.3-3.2-.4-2.7-2.4-4.5-2.6-7.3-.2-2.6.1-5.3 0-7.9a99 99 0 00-.7-9.4c-1.6-13.3-4.5-26.6-6.8-39.8 0-.2-.9-.4-1-.1-2.7 11.6-5.8 23.2-7.9 35a106.5 106.5 0 00-1.5 25.1l.4 2.8c.2 1.5 1 3.5 1 5 0 1.7-1.7 1.1-3.1 1.1-1.6 0-3.7.2-4.9-1.2-.7-.8-.9-3.1-1.1-4-.4-1.9-.8-3.9-.9-5.9-.5-5.8.8-11.2 1.7-16.9.9-5.6.6-11.2.5-16.8 0-6 .4-12 .7-18 .4-6.4.3-13 1.4-19.3 1.1-6.2 3.2-11.9 3.6-18.3 0 .1-1-.1-1 .2z" class="st0"/></g><g id="XMLID_122_"><path id="XMLID_282_" d="M225.3 211.2c-.3 3.9-.9 7.8-1.9 11.6-.8 3.1-1.8 6-2.5 9.1-.7 3.5-1 7-1.3 10.6l-1.4 18.8c-.4 5-.7 10.1-.8 15.1-.1 6.3.2 12.7-.6 18.9-.7 5-2.1 9.8-2.6 14.8a50 50 0 002.2 19.6c.2.5.3 1.1.8 1.4.4.3 1 .3 1.5.3h8.7c-5.8-19.3-1.5-40.1 2.8-59.9l5-23 5.3 32.8c.9 5.4 1.7 10.8 2.3 16.2.5 5.3.7 10.5.5 15.8-.1 2.5-.3 5.2.7 7.5.5 1.1 1.2 2.1 1.7 3.3.9 2.1.8 4.6-.3 6.6a21 21 0 0012.9.7 193.6 193.6 0 01-9.6-61c-.2-20.7 1.9-41.4 4.7-62"/><path id="XMLID_277_" d="M224.8 211.2c-.3 4.5-1.1 9-2.4 13.4-1.1 4-2.3 8-2.8 12.1-1.1 9.2-1.4 18.6-2.1 27.9-.6 8.8-.2 17.7-.8 26.5-.6 9-3.7 17.5-3.1 26.6.2 2.5.5 5 1.1 7.5.4 1.7.5 4 1.5 5.4.7 1.1 1.6 1 2.8 1.1h8.2c.1 0 .7 0 .6-.2a92.6 92.6 0 01-1-40.9c2.3-14.1 5.7-28 8.8-41.9l-1 .1c2.3 14.2 4.8 28.5 6.8 42.8 1 7.1 1.5 14.3 1.3 21.5-.1 2.8-.3 5.7.9 8.4 1.5 3.3 3 5.8 1.2 9.4l.1.2c4.4 1.6 8.9 1.8 13.4.8.1 0 .4-.1.3-.2-10.4-30.5-11-63.2-8.2-95 .8-9.4 2-18.7 3.2-28 0-.2-1-.2-1 .1a341.7 341.7 0 00-3.1 86.9c.8 7 2 13.9 3.7 20.8l2.5 9.5.7 2.2c.2.5 1 2.1.9 2.7-.3 1.2-.7 1-1.9 1.1a20 20 0 01-4.9 0c-1.2-.1-4.2-.2-4.5-1.7l.4-1.5c.1-.7.2-1.5.1-2.3-.3-2.9-2.5-5-2.9-7.9-.5-3.3 0-6.7 0-10 0-4-.3-7.9-.7-11.8-1.7-16.1-4.9-32-7.4-48 0-.3-.9-.2-1 .1-3 13.9-6.5 27.8-8.8 41.9a91 91 0 001 40.9l.6-.2H221c-1.1 0-2.2.2-3.2-.3-1.3-.6-1.4-2.2-1.8-3.6a56 56 0 01-1.7-12.2c-.2-8.5 2.8-16.7 3.2-25.2.4-8.4.1-16.7.7-25.1.6-8.7 1.1-17.3 1.9-26 .8-9.5 4.7-18.3 5.4-27.9.3-.3-.7-.3-.7 0z" class="st0"/></g><g id="XMLID_21_"><path id="XMLID_269_" d="M225.3 211.3c-.4 4.5-1.1 9.1-2.3 13.5-1 3.6-2.2 7-3 10.6-.9 4-1.3 8.2-1.6 12.3l-1.8 21.9c-.5 5.9-1 11.7-1.1 17.6-.2 7.3.1 14.7-1 22-.8 5.8-2.5 11.4-3.2 17.2-.9 7.7.2 15.5 2.3 22.9.2.6.4 1.3.9 1.7.5.3 1.1.4 1.7.4l10.1.1c-7-22.5-2.3-46.8 2.5-69.8l5.5-26.7 5.7 38.3c.9 6.3 1.9 12.6 2.4 18.9.5 6.2.7 12.3.4 18.5-.1 3-.4 6 .8 8.8.6 1.3 1.4 2.5 1.9 3.8 1 2.5.8 5.4-.4 7.7 4.7 1.8 10 2.2 14.9.9-8-22.7-11.3-46.9-11.8-71-.4-24.1 1.9-48.2 5.1-72"/><path id="XMLID_27_" d="M224.8 211.2a71.6 71.6 0 01-2.9 15.2c-1.5 5.1-3 10.1-3.6 15.4-1.2 10.9-1.9 22-2.8 32.9-.8 10.8-.2 21.6-1.4 32.3-.6 5.2-2 10.3-2.9 15.5a56.4 56.4 0 00.8 23c.4 1.6.5 4.3 2 5.4.9.7 2.2.5 3.3.5h9.1l.2-.1a107 107 0 01-1.6-48.1c2.5-16.2 6.3-32.3 9.6-48.4a3 3 0 00-1-.2c2.5 16.5 5.2 33.1 7.3 49.6 1 8.3 1.6 16.7 1.3 25-.2 3.6-.5 7.2 1.1 10.6.7 1.5 1.7 2.9 2 4.6.5 2.1 0 4.2-.9 6.1-.1.2.3.3.4.3 5 1.8 10.2 2.2 15.3.9l.1-.1c-12.3-35.4-13.4-73.5-10.3-110.5.9-10.9 2.2-21.7 3.6-32.5 0-.3-.9-.5-1-.3-5.3 40.2-8.4 81.5.5 121.5 1.2 5.5 2.7 10.9 4.4 16.3.4 1.2 1 2.4 1.2 3.6.1.7.5 1.2-.2 1.8a25.5 25.5 0 01-13.6-1.1l.4.3a9.6 9.6 0 00-.3-9.3c-2.1-4-2.1-7.5-1.9-12 .3-8.1-.1-16.2-1.1-24.2-2.1-16.9-4.9-33.7-7.4-50.6 0-.2-.9-.5-1-.2-3.3 15.9-7 31.9-9.6 47.9-2.4 15.2-3.3 31 .7 46 .2.8.8 1.9 0 2.5-.5.4-2.5 0-3.2 0h-2.7c-1.4 0-3.8.1-4.9-1.1-.9-1-1-3.8-1.3-5.1-.4-2-.8-3.9-1-5.9-1-8.3.4-16.1 2.1-24.2 1.7-8.2 1.8-16.3 1.9-24.6.1-8.3.9-16.7 1.6-25 .8-9.2 1-18.7 2.7-27.8.8-4.3 2.3-8.3 3.4-12.5a68 68 0 002.3-13.5c.3.1-.6-.2-.7.1z" class="st0"/></g><g id="XMLID_88_"><path id="XMLID_275_" d="M251.5 210.3A425.9 425.9 0 00247 272c.3 20.7 3.1 41.4 9.9 60.9-4.2 1.1-8.7.8-12.8-.8a8 8 0 00.4-6.6c-.5-1.1-1.2-2.1-1.7-3.3-1-2.3-.8-5-.7-7.5.2-5.3.1-10.6-.4-15.8-.5-5.4-1.3-10.8-2.1-16.2l-5-32.8-4.8 23c-4.1 19.8-8.3 40.7-2.3 60h-8.6c-.5 0-1.1 0-1.5-.3-.5-.3-.6-.9-.8-1.4-1.8-6.3-2.7-13-2-19.5.5-5 2-9.8 2.7-14.7.9-6.2.6-12.5.9-18.8l.2-3.9 1.1-11.2 1.9-18.9c.4-3.6.7-7.2 1.5-10.7.4-1.9 1-3.7 1.6-5.5l.8-2.5.3-1.2.4-1.7c.7-3.3 1.2-6.6 1.4-9.9"/><path id="XMLID_270_" d="M251 210.2a343.4 343.4 0 00-2.8 87.1 183.4 183.4 0 006.2 29.4c.4 1.4 1.2 3 1.4 4.5.2 1.4.4 1.4-.9 2-1.3.5-3.6.3-5 .2-1.5-.1-4.7-.1-5-1.7-.1-.5.5-1.7.6-2.2V328c-.3-3.2-2.7-5.5-2.9-8.7-.3-3.4.2-6.8.2-10.2 0-3.6-.2-7.2-.6-10.9-1.5-16.1-4.6-32.1-7-48.1 0-.2-.9-.4-1-.1-2.9 14-6.3 28-8.4 42.1-1 6.7-1.7 13.4-1.7 20.2 0 3.3.2 6.7.7 10l.6 3.6c.3 1.7 1.1 3.6 1.2 5.3.1 1.5.4 1.3-1.1 1.6h-1.9c-2 0-5.3.5-6.4-1.5-.7-1.3-.8-3.2-1.1-4.6-.4-2.1-.8-4.3-.9-6.5-.6-7.2 1.1-13.8 2.4-20.8 1.3-7 1-14 1.2-21.1.3-6.9 1.2-13.8 1.9-20.7.8-7.6 1.1-15.5 2.7-23.1.7-3.5 2-6.8 2.9-10.2 1-3.8 1.5-7.7 1.8-11.6 0-.3-1-.4-1-.2-.3 4.3-.9 8.7-2.1 12.9-1.2 4.3-2.6 8.5-3.2 13-1.3 9.1-1.9 18.4-2.9 27.5-.5 4.5-.9 9.1-1.1 13.7-.1 4.5 0 9.1-.4 13.6-.7 9.3-4 17.9-3.2 27.4.2 2.4.6 4.7 1.1 7 .3 1.5.5 4.1 1.8 5.1.6.5 1.4.5 2.1.5h8.6c.1 0 .3 0 .3-.2a92.4 92.4 0 01-1.3-41.2c2.2-14 5.5-27.8 8.4-41.7l-1-.1c2.2 14.5 4.7 29.1 6.5 43.7.9 7.1 1.2 14.3.9 21.5-.1 2.8-.2 5.5 1.2 8.1 1.6 3 2.4 5.6.8 8.8-.1.1.3.2.3.3 4.3 1.6 8.8 1.9 13.3.8l.2-.2c-13.6-39.5-10.8-81.9-5.4-122.6.1-.3-.9-.5-1-.2z" class="st0"/></g><g id="XMLID_87_"><path id="XMLID_268_" d="M249.8 211.8c-2.4 17-4.2 34.2-4 51.5a162 162 0 008 50.8c-3.5.9-7.3.7-10.7-.6.9-1.7 1-3.7.3-5.5l-1.4-2.7c-.8-1.9-.7-4.1-.6-6.3a97 97 0 00-.4-13.2c-.4-4.5-1.1-9-1.8-13.5l-4.3-27.3-4.1 19.2c-3.5 16.6-7 34-2 50.1h-7.2c-.4 0-.9 0-1.2-.3-.4-.3-.5-.7-.7-1.2a42.5 42.5 0 01-1.7-16.2c.4-4.1 1.7-8.1 2.3-12.2.8-5.1.5-10.4.8-15.6l.3-3.2 1.2-9.3 2.1-15.9c.4-3 .7-6.1 1.5-9.1l1.4-4.7.7-2.2.3-1 .3-1.5c.5-2.8.8-5.6.9-8.4"/><path id="XMLID_263_" d="M249.3 211.9a287.6 287.6 0 00-2.8 71.2 174.8 174.8 0 005 25.3c.4 1.3 1.1 2.7 1.2 4 .1.9.4 1.4-.7 1.9-1 .5-2.8.2-3.9.1-1.6-.1-4.1-.1-4.1-2 0-1 .4-1.8.3-2.9-.3-2.5-2.2-4.4-2.4-7-.2-2.6.1-5.2.1-7.8 0-3-.2-6-.4-8.9-1.3-13.6-4-27.2-6.1-40.7 0-.3-.9-.2-1 .1-2.5 11.7-5.3 23.4-7.1 35.2a77 77 0 001 34.1l.6-.2h-3.6c-1 0-2.7.3-3.6 0-2.2-.7-2.4-4.7-2.8-6.6-.8-4.6-.8-9.1 0-13.7.8-4.8 2-9.3 2.3-14.2.2-4.5.1-9 .6-13.5 1-9.2 2.4-18.3 3.5-27.5 1.1-8.6 4.5-16.4 4.8-25.1 0-.3-1-.2-1 .1-.2 4.7-.9 9.3-2.3 13.8a72.3 72.3 0 00-2.6 13.1c-1.2 9.6-3.1 19.3-3.6 28.9-.3 5 0 10.1-.7 15.1s-2.3 9.8-2.4 14.9c-.1 2.4.1 4.8.5 7.2.3 1.9.5 5.3 1.6 6.9.6.8 1.1.8 2 .9 2.3.3 4.9 0 7.2 0 .1 0 .7 0 .6-.2a77 77 0 01-1-34.1c1.8-11.8 4.7-23.5 7.1-35.2l-1 .1c1.9 12 4 23.9 5.5 35.9.7 5.7 1.1 11.3.9 17.1-.1 2.4-.4 4.9.6 7.2 1.2 3 2.7 4.8 1.1 8.1l.1.2c3.7 1.3 7.5 1.5 11.3.6.1 0 .3-.1.2-.2-11.2-33-8.7-68.3-4.1-102.2.1-.3-.8-.3-.9 0z" class="st0"/></g><g id="XMLID_86_"><path id="XMLID_261_" d="M248.1 213.4c-2 13.6-3.5 27.4-3.4 41.2s1.8 27.6 6.2 40.7a14 14 0 01-8.6-.5c.7-1.3.8-3 .2-4.4l-1.1-2.2c-.7-1.6-.6-3.3-.5-5a92 92 0 00-1.8-21.2l-3.5-21.7-3.3 15.4c-2.9 13.3-5.7 27.3-1.8 40.3h-5.8c-.3 0-.7 0-1-.2-.3-.2-.4-.6-.5-.9a31 31 0 01-1.4-12.8c.3-3.3 1.3-6.4 1.8-9.6.6-4.1.3-8.2.7-12.4l.4-2.5 1.3-7.4a439 439 0 002.2-13c.4-2.5.8-5 1.4-7.5l1.2-3.9.5-1.8.2-.9.2-1.2c.3-2.3.5-4.6.4-6.8"/><path id="XMLID_256_" d="M247.6 213.3a225.4 225.4 0 00-2.6 56.2c.5 4.7 1.2 9.3 2.2 13.9l1.6 6.4.9 3.1c.7 2.3-.2 2.5-2.5 2.5-1.4 0-3.9 0-4-1.6-.1-.6.2-1.3.2-1.9-.2-2.2-1.8-3.8-2-6.1-.3-4.5.1-9-.4-13.6-1.1-10.7-3.3-21.4-5-32 0-.2-.9-.5-1-.2-2 9.4-4.3 18.8-5.8 28.3a92 92 0 00-.9 19.4l.5 3.6c.2.8 1.1 2.9.8 3.6-.4 1.1-1.8.7-2.8.7-1.2 0-2.5.4-3.2-.8-1.2-2-1.4-5.9-1.5-8.1-.3-4.6 1-8.9 1.8-13.4.8-4.7.3-9.4.9-14.1.6-4.6 1.6-9.1 2.4-13.7.9-5.3 1.4-10.7 2.8-15.9.6-2.2 1.5-4.4 1.9-6.6.5-2.6.6-5.4.6-8 0-.3-1-.5-1-.2 0 4.1-.5 8-1.7 11.9-1.3 4-1.9 8.1-2.6 12.2-1.3 7.9-3.5 15.9-3.7 23.9-.1 4.1-.2 8.1-1 12.1-.8 3.9-1.6 7.6-1.4 11.6.1 1.9.4 3.7.8 5.6.2 1.1.4 2.9 1.3 3.7.3.3.7.3 1.1.4 2 .4 4.3 0 6.3 0 .1 0 .3 0 .3-.2a62.1 62.1 0 01-.6-27.8c1.5-9.3 3.8-18.6 5.8-27.8l-1-.2c1.5 9.4 3.2 18.7 4.5 28.1.7 4.9 1 9.9.9 14.9 0 1.7-.2 3.4.5 5 .9 2.4 2.1 3.9.9 6.5-.1.1.2.3.3.3 3 1 6 1.2 9.1.6.1 0 .2 0 .2-.2-8.8-26.5-6.6-54.6-2.7-81.8-.2-.3-1.2-.5-1.2-.3z" class="st0"/></g><g id="XMLID_85_"><path id="XMLID_254_" d="M246.4 215c-1.6 10.2-2.8 20.5-2.9 30.9s1.1 20.8 4.3 30.6a11 11 0 01-6.5-.3c.5-1 .6-2.2.1-3.3-.2-.6-.6-1.1-.9-1.6-.5-1.2-.4-2.5-.4-3.7.1-2.6-.1-5.2-.3-7.9-.3-2.7-.8-5.3-1.2-8l-2.8-16.2-2.6 11.6a63 63 0 00-1.6 30.4l-4.4.1-.7-.1-.4-.7a22 22 0 01-1.1-9.5c.3-2.4 1-4.7 1.3-7.1.5-3 .2-6.1.6-9.1l.4-1.8 1.4-5.6 2.4-10c.4-2 .8-4 1.4-5.9l1-3.1.4-1.5.1-.7.1-.9v-5.3"/><path id="XMLID_249_" d="M245.9 215.1c-2.8 18-4.6 36.7-.4 54.7l.8 3.2c.4 1.6 1.7 3.1-.8 3.7-1 .2-3.1 0-3.4-1.1-.2-.5.2-1.5.1-2.1-.4-1.6-1.4-2.7-1.5-4.5-.1-2.1.1-4.3-.1-6.4-.6-9.1-2.7-18.2-4.2-27.2 0-.3-.9-.2-1 .1-3 13.5-8 28.3-4.2 42.1l.6-.3c-1.4 0-3.1.3-4.3-.3-1-.5-1-1-1.3-2l-.4-1.7c-.5-2.9-.4-5.8.2-8.7.5-2.6 1.1-5 1.2-7.6.1-3.3.3-6.3 1.1-9.6 1.4-5.4 2.7-10.8 3.8-16.3.6-2.6 1.6-5.1 2.2-7.6.6-2.4.5-4.9.3-7.3 0-.3-1-.2-1 .1.3 3.1.2 6.1-.9 9.1-1 2.9-1.6 5.8-2.2 8.8l-2.1 9.1c-.7 2.9-1.8 5.8-2 8.8-.3 3-.1 6.1-.6 9.1s-1.4 5.8-1.3 8.8c0 1.5.2 2.9.5 4.3.2.8.3 2.6 1 3.1 1.2 1 4.2.3 5.6.3.1 0 .7-.1.6-.3-3.8-13.8 1.1-28.5 4.1-42l-1 .1c1.2 7.2 2.6 14.3 3.7 21.5.5 3.5.7 7 .7 10.5 0 1.3-.1 2.6.4 3.8.8 1.8 1.6 2.8.7 4.8l.2.2c2.3.8 4.6.9 7 .3.1 0 .4-.1.3-.2-6.4-20-4.6-41.1-1.4-61.4 0-.2-1-.2-1 .1z" class="st0"/></g><g id="XMLID_84_"><path id="XMLID_247_" d="M244.7 216.6c-1.2 6.8-2.2 13.7-2.4 20.6-.2 6.9.5 13.9 2.5 20.5-1.5.4-3 .3-4.4-.2.3-.7.4-1.5 0-2.2l-.6-1.1c-.4-.8-.3-1.6-.3-2.5 0-1.7-.1-3.5-.3-5.2-.2-1.8-.6-3.5-.9-5.3l-2-10.7-1.9 7.9a41.4 41.4 0 00-1.3 20.6l-2.9.1-.5-.1c-.2-.1-.2-.3-.3-.4-.7-2-1-4.1-.8-6.1l.9-4.6c.3-1.9 0-4 .5-5.9l.5-1.1a141.4 141.4 0 004-10.7l1.3-4.4.8-2.3c.1-.4.3-.7.3-1.1l.1-.5v-.7a22 22 0 00-.5-3.7"/><path id="XMLID_242_" d="M244.2 216.5c-2 11.4-3.4 23.2-1.4 34.7a27.1 27.1 0 001.1 5c.5 1.2-.4 1.4-2.8.6-.1-.1.1-.6 0-.8-1.2-2.7-1-5.2-1.3-8.1-.6-5.8-2-11.6-3.1-17.3 0-.2-.9-.4-1-.1-1.5 6.1-3.3 12.3-3.8 18.7-.1 1.6-.2 3.3-.1 4.9 0 .8.8 3.3.6 4-.3.9-1.3 1-2 .6-.8-.4-.8-1-1-1.8-.4-1.9-.5-3.8-.1-5.7.3-1.5.7-2.9.8-4.5.1-1.5-.1-3.2.3-4.7.7-2.6 2.2-5.2 3.1-7.8 1.1-3 1.9-6.2 2.9-9.2 1-2.7 1-4.8.4-7.7-.1-.3-1-.4-1-.1a12 12 0 01-.1 6.8l-2.2 6.8c-.6 2.1-1.4 4.1-2.2 6.1-.7 1.8-1.8 3.7-2.1 5.7-.4 2.3-.2 4.6-.7 6.9-.4 2.1-.7 4.1-.3 6.3.7 3.9 1.5 3.4 5.1 3.3.1 0 .3 0 .3-.2-2.4-9.4 1-19.3 3.2-28.4l-1-.1 2.7 14.2c.4 2.3.5 4.6.6 6.9.1 1.9 1.5 3.9.9 5.7l.3.3a9 9 0 004.9.2l.2-.2a90.1 90.1 0 01-.1-41c-.1-.1-1.1-.2-1.1 0z" class="st0"/></g><g id="XMLID_83_"><path id="XMLID_240_" d="M243 218.2c-.8 3.4-1.5 6.8-1.8 10.3a33 33 0 00.6 10.4c-.8.2-1.6.2-2.3-.1.1-.3.1-.7-.1-1.1l-.3-.5c-.2-.4-.2-.8-.2-1.2 0-.8-.1-1.7-.3-2.5l-.6-2.6-1.3-5.2-1.1 4.1c-1 3.5-1.9 7.3-1.1 10.8l-1.5.1h-.3l-.2-.2c-.4-.9-.6-1.8-.6-2.7l.4-2 .4-2.7.5-.5 1.7-1.8a26.3 26.3 0 003.9-6.9l.7-1.6.2-.8v-.3l-.1-.4-1-2.2"/><path id="XMLID_235_" d="M242.5 218.2a48.7 48.7 0 00-1.7 17.8c0 .3.4 1.7.3 1.9-1.2 1.7-1 0-1.2-.2-.8-.9-.6-2.3-.7-3.4-.4-2.9-1.3-5.7-2.1-8.6-.1-.3-.9-.3-1 0-1 3.7-2.3 7.4-2.5 11.3 0 .6.3 2.1.1 2.7-.4 1.4-1 .6-1.2-.6-.3-1.5.2-3.3.5-4.8.4-1.9 1.7-2.7 2.8-4.2a25 25 0 002.5-4.1c.6-1.2 1.3-2.5 1.6-3.7.4-1.4-.2-2.5-.9-3.7-.1-.3-1.1-.1-1 .1.9 1.6 1.3 2.6.6 4.4-.5 1.3-1.1 2.7-1.8 3.9-.6 1.2-1.4 2.3-2.2 3.4-.6.8-2 1.8-2.4 2.6-.5.9-.5 3-.7 4.1-.1 1-.1 1.9.2 2.8.6 1.5 1.3 1 2.8.9l.4-.2c-.9-5 .9-10 2.2-14.8h-1c.6 2.4 1.3 4.8 1.8 7.3l.4 3.3c.1.8.7 1.7.6 2.5l.2.2c1 .2 1.7.2 2.7.1l.4-.2a46.4 46.4 0 011.2-20.6c.1-.4-.9-.5-.9-.2z" class="st0"/></g><g id="XMLID_1_"><path id="XMLID_233_" d="M241.3 219.8a6 6 0 00-5.6 2.5c-.3.5-.6 1.3-.1 1.6l.6.2c2.4.5 5.1-.8 6.2-3l.1-.4c0-.2-.2-.3-.3-.3-.4-.3-.9-.5-1.5-.6"/><path id="XMLID_216_" d="M241.5 219.6a7 7 0 00-5.2 1.4c-1.3 1.1-2.4 3.1 0 3.4 1.7.2 3.5-.3 4.9-1.3.5-.4 1.9-1.6 1.8-2.4-.1-.7-1.4-1-1.9-1.1-.2-.1-1.2.2-.7.4.6.2 1.6.4 1.5 1.2 0 .4-.7 1-.9 1.2a5 5 0 01-3.2 1.6c-.9.1-2.4-.1-1.9-1.4.2-.5.6-.8.9-1.2a5 5 0 014.2-1.4c.3 0 1.1-.3.5-.4z" class="st0"/></g></g></g><text id="XMLID_5_" font-family="Verdana" font-size="72" transform="translate(0 428.2)">Wilson Zoo</text><path id="XMLID_10_" d="M3.5 359.7h395" class="st3"/><path id="XMLID_12_" d="M3.5 441.7h395" class="st3"/></g></svg>